<svg id="_13_Obraz" data-name="13 Obraz" xmlns="http://www.w3.org/2000/svg" viewBox="0 0 223.34 390.55"><defs><style>.cls-1{fill:#007229;fill-rule:evenodd;}</style></defs><title>kok1</title><path class="cls-1" d="M136.85,237.33a24.88,24.88,0,0,0,1.13,3.35c2.52,5,5,10,7.74,14.83,1.44,2.59,3.3,4.95,5,7.42a1.43,1.43,0,0,1,.25.75c.06,1.54.1,3.08.11,4.62,0,.17-.24.34-.54.73a16.09,16.09,0,0,0-.34-3,18.38,18.38,0,0,0-1.62-3.52c-1.21-2-2.62-4-3.78-6.07-2.11-3.84-4.13-7.73-6.14-11.62-1.16-2.26-2.16-4.6-3.31-6.87-2.21-4.36-4.35-8.76-6.76-13a93.35,93.35,0,0,0-5.37-7.92q-3.36-4.71-6.86-9.34c-.86-1.14-1.89-2.16-2.86-3.22a2.49,2.49,0,0,0-3.6-.5c-4,2.35-8,4.83-12.06,7-2.93,1.55-5.82,3.35-9.28,3.58-2.15.14-4.32.14-6.43.49a27.74,27.74,0,0,0-4.21,1.48,8.72,8.72,0,0,1-1.37.25,3.81,3.81,0,0,1,.23-1.38,26,26,0,0,1,1.86-2.49c.75-.95,1.16-2,.32-3-1.8-2.28-1.14-4.5.15-6.67a27.09,27.09,0,0,1,6.69-7.23c2.87-2.27,5.62-4.69,8.51-6.93a14.87,14.87,0,0,1,8.56-3.21c2.15-.1,3,1.22,2.42,3.3-.32,1.12-.71,2.21-1,3.33a9.39,9.39,0,0,0-.15,1.61A10.12,10.12,0,0,0,108.9,192a58.9,58.9,0,0,1,6-3.86,4.17,4.17,0,0,1,5,.56c1.84,1.71,1.6,4.94-.09,6.82-1.3,1.45-2.74,2.76-4.13,4.12-.25.24-.55.44-.75.6,1.61,2,3.18,3.85,4.6,5.81s2.76,4.07,4.08,6.14q2.43,3.81,4.76,7.68c2.48,4.12,5,8.22,7.35,12.4,2,3.46,3.68,7.07,5.64,10.54,1.6,2.84,3.31,5.63,5.14,8.34,2.47,3.65,5.1,7.19,7.67,10.78a9.29,9.29,0,0,0,.68.72,3.08,3.08,0,0,0,0-.72q-4-12.16-8-24.32l-6.24-18.74a180.07,180.07,0,0,1-5.43-20.58c-1.22-6-2.57-12-3.81-18-.93-4.53-1.68-9.1-2.71-13.6-.93-4-2.12-8-3.23-12-1-3.73-2-7.47-3.19-11.15a8.61,8.61,0,0,0-1.89-3c-1.35-1.5-2.7-.28-4,.24-1.81.73-3.58,1.54-5.4,2.21-3,1.08-5.91,2.12-8.9,3.08-2,.66-4.13,1.14-6.19,1.71-3.55,1-7.09,1.94-10.63,2.95-1.79.51-3.55,1.16-5.36,1.64a4,4,0,0,1-1.87-.14c-2.89-.7-4.1-.28-5.27,2.44a39.64,39.64,0,0,0-3,9.53c-.19,1.14-.27,2.3-.5,3.43-.07.36-.45.66-.69,1-.24-.25-.48-.51-.73-.76-2-2.1-2.73-5.06-4.65-7.24-1.66-1.87-2.9-4.13-5-5.53a17.92,17.92,0,0,0-2.69-1.45c-1.64-.71-3.41-1.13-5-2-4.14-2.27-8.16-4.79-12.31-7a25.21,25.21,0,0,1-5.59-4.24,8.74,8.74,0,0,1-2.62-8c1.11-7.71,4.14-14.72,7.82-21.46,1.64-3,3.73-5.74,5.59-8.62,2-3.18,3.85-6.54,6.16-9.52A96.85,96.85,0,0,1,58.87,82c3.66-3.52,8.36-5.3,13.37-6.26A40,40,0,0,1,82.82,75c2.74.2,5.53,0,8.24.38,3.78.53,7.63,1.15,10.63,3.85a23,23,0,0,1,4,4.23,17.73,17.73,0,0,1,2,5.08,29.64,29.64,0,0,1,1.29,10c-.08,1,0,2.09,0,3.35a8.53,8.53,0,0,0,2.71-4.12c1-3.37,1.78-6.78,2.52-10.2a24.38,24.38,0,0,1,6.06-12.24,31.84,31.84,0,0,1,4.33-4.2,2,2,0,0,0,.48-1.38c0-3.35-.22-6.69-.24-10,0-2.39.08-4.78.24-7.17a4.92,4.92,0,0,0-2.57-5.11,14.28,14.28,0,0,0-3.87-1.37c-3.28-.63-6.61-1-9.89-1.65a80.83,80.83,0,0,1-9.65-2.22,57.45,57.45,0,0,1-8.52-3.73c-3.14-1.62-4.14-5.24-2.39-8.6a29,29,0,0,0,2.6-5.74,18.13,18.13,0,0,1,2.83-5.58c2.27-3.28,5.44-5.26,9.48-5.08,3.06.14,5.46,1.86,7.59,4.1a101.26,101.26,0,0,1,8.66,11.27c2.17,3,4.53,6,6.76,9a21,21,0,0,1,1.36,2.52c2.66-3.56,5.26-6.85,7.62-10.3.92-1.33,1.81-2.89.77-4.76-.57-1,1-2.92,2.55-3.2,2.16-.4,4.36-.58,6.48-1.11,2.93-.74,5.8-1.74,8.71-2.58a66.14,66.14,0,0,1,7.6-2c4.48-.73,9-1.14,13.52-1.71a47.17,47.17,0,0,1,16.5.46,11.3,11.3,0,0,1,5.75,3.66c.9.95.61,2.21-.8,3a20.49,20.49,0,0,1-4.43,1.7c-2.85.73-5.8,1.1-8.61,1.95-3.35,1-6.63,2.27-9.87,3.59-2.94,1.19-5.83,2.52-8.66,4-2.43,1.24-4.74,2.72-7.11,4.09,0,.15.1.31.14.46a12.55,12.55,0,0,0,2.22-.37c3.78-1.27,7.53-2.63,11.31-3.89a67.32,67.32,0,0,1,14.17-2.85c5.55-.59,11.1-1.11,16.65-1.47,3.69-.24,7.43-.51,11.07.52a40.74,40.74,0,0,1,6.6,2,17.66,17.66,0,0,1,9.87,11.92c.56,2.11,1.15,4.22,1.67,6.34.42,1.72-.16,2.29-1.85,1.71s-3.51-1.56-5.32-2.11a66.09,66.09,0,0,0-9.22-2.39,67.74,67.74,0,0,1-8.7-2,105.84,105.84,0,0,0-10.57-2.45,34.8,34.8,0,0,0-12.38-.16c-1.52.28-3,.84-4.52,1.12-4.5.84-9,1.6-13.53,2.39l-1.82.34c0,.14,0,.28-.05.42,1.36.33,2.71.66,4.07,1,4.69,1.08,9.38,2.2,14.09,3.2,2.13.46,4.34.57,6.47,1.05,3.92.89,7.81,1.91,11.69,2.93a28.05,28.05,0,0,1,8.07,3.22c2.89,1.84,5.85,3.58,8.62,5.59,3.14,2.3,6.17,4.77,9.13,7.31a5.61,5.61,0,0,1,1.79,6.58,1.83,1.83,0,0,1-.87,1c-3.27,1.14-5.79,3.44-8.53,5.41a55.09,55.09,0,0,1-5,3.29,19.45,19.45,0,0,0-6.39,5.65,5.72,5.72,0,0,1-3,2,6.63,6.63,0,0,1-4.91-.22,19.63,19.63,0,0,1-5.35-4c-2.5-2.68-5.19-5.19-7.71-7.86a78.27,78.27,0,0,1-7-7.95,42.74,42.74,0,0,0-3.67-5.08c-3-3.14-5.84-6.42-8.78-9.63a28.17,28.17,0,0,0-21-9.2c-1.77,0-3.52.64-5.29.8a35.86,35.86,0,0,1-4.27-.1c-1.19,0-2.38-.13-3.57-.13a1.57,1.57,0,0,0-1.7,1.39,38,38,0,0,0-.58,4.85c-.09,3.43,0,6.85,0,10.48a26.22,26.22,0,0,0,3.43-1.47,3.42,3.42,0,0,1,3.71.09,10.81,10.81,0,0,1,4.44,4.71,45.93,45.93,0,0,1,4.19,11.68c1.27,5.48,2.58,10.95,3.66,16.46a15,15,0,0,1-.11,5.35c-.79,4.51-1.74,9-3.9,13.11a20.43,20.43,0,0,1-2.87,4c-1.8,2.06-3.7,4-5.64,6a2.85,2.85,0,0,0-.83,2.33c0,1.83,0,3.38,2.35,3.86a38,38,0,0,1,5.17,1.68c2.63,1,5.38,1.9,6.73,4.6a47.82,47.82,0,0,1,2.25,6c.92,2.63,1.77,5.27,2.67,7.91a5.68,5.68,0,0,0,.62,1,15.26,15.26,0,0,0,1.53-1.07c1.71-1.48,3-3.44,5.23-4.32.24-.09.37-.75.38-1.15.12-3.77.19-7.55.31-11.32.09-3,.28-6,.32-9.06,0-3.82.07-7.64-.05-11.46s-2-6.84-3.77-10c0,0,0-.08-.07-.09-2.39-.93-1.3-3.13-1.71-4.77s-.5-3.07-.94-4.55a4.11,4.11,0,0,0-4.73-2.45,13.84,13.84,0,0,1-1.51.37,6,6,0,0,1-1.38-.23c2.51-2.06,6.54-1.13,7.67.23a4.52,4.52,0,0,1,.82,1.81c.55,2.45,1,4.92,1.54,7.37a1.77,1.77,0,0,0,.73.92,28.22,28.22,0,0,0,2.43,1.44c1.15.62,2.14,0,3.14-.48,2.49-1.15,5-2.34,7.48-3.44a4.72,4.72,0,0,1,3.93.25c6.46,2.87,11,7.86,15.21,13.32a77.07,77.07,0,0,1,8.71,14.23,10.45,10.45,0,0,1-1.08,11.47c-.09.13-.18.26-.26.4a4.65,4.65,0,0,0-.08.54,12.26,12.26,0,0,0,1.22-.77,22,22,0,0,1,3.62-2.85c3.08-1.49,6.29-2.7,9.46-4,2.28-.93,4.64-1.69,6.87-2.72A29.31,29.31,0,0,1,233,130.36a5,5,0,0,1,1.86.38,64.37,64.37,0,0,1,10,5.27c1.48,1,3.4,1.31,5.11,2,2.5.94,3.41,2.5,2.93,5.12-.22,1.15-.49,2.3-.78,3.62l-1.3.58a3.73,3.73,0,0,1-.4-.7c-.62-2-1.82-2.46-3.84-2.16-2.43.36-3.88,2.09-5.53,3.51a16.3,16.3,0,0,1-7.68,3.55c-4.28.86-8.46.2-12.55-.72a70.15,70.15,0,0,0-10.46-1.44,5.36,5.36,0,0,0-2.45.66c-2.49,1.15-5,2.31-7.4,3.62-4.13,2.25-7.58,5.13-8.54,10.11-.79,4.14-1.87,8.25-2.44,12.42-.78,5.64-1.25,11.32-1.72,17-.37,4.52-.55,9.07-.79,13.61-.21,4.12-.36,8.26-.58,12.38q-.72,13.75-1.5,27.49c-.2,3.62-.53,7.24-.73,10.86-.09,1.51,0,3,0,4.54,0,.34-.34.67-.53,1-.22-.32-.62-.65-.62-1q0-3.29.2-6.57.51-9.81,1.07-19.6c.45-7.89,1-15.78,1.4-23.67.18-3.5.15-7,.32-10.53.15-3.34.41-6.68.69-10,.32-3.78.67-7.55,1.1-11.31.38-3.33.8-6.66,1.38-10,.42-2.38,1.09-4.73,1.73-7.06.46-1.72.67-3.7,1.69-5a19,19,0,0,1,5.18-4.46c2.68-1.64,5.59-2.89,8.43-4.26a31.78,31.78,0,0,0,9.13-7c3.71-3.88,7.92-6.85,13.48-7.54,2.19-.28,4.14.38,6.19.75a10.83,10.83,0,0,1,4.25,1.93c2.39,1.63,4.77,3.17,7.9,3a3.7,3.7,0,0,1,3.7,2.39,2.48,2.48,0,0,0,.38.44c1.1-2.39.45-3.21-1.7-4.39a5,5,0,0,0-1.69-.6c-2.82-.39-4.89-2.21-7.21-3.59a41.89,41.89,0,0,0-6.08-3.26c-2.34-.9-4.81-.23-7.22.2-4.5.8-8.43,3.14-12.69,4.63a66.09,66.09,0,0,0-7.12,2.79,31.11,31.11,0,0,0-5.15,3.42,46.62,46.62,0,0,0-4.8,4.3,17.58,17.58,0,0,0-2.43,3.41,44.93,44.93,0,0,0-2.49,4.89c-1.64,3.88-3.1,7.83-4.77,11.69-2.24,5.2-2.68,10.73-3.19,16.25-.38,4.13-.74,8.26-1,12.39q-.36,5.55-.5,11.1c-.16,6.54-.23,13.07-.36,19.6s-.29,13.24-.49,19.85c-.08,2.87-.37,5.74-.44,8.61-.05,2.66.06,5.33.11,8,0,.24.16.61.06.69-1.36,1.13-.56,2.76-1,4.09a2.68,2.68,0,0,1-.67,1.21c-.13-1.26-.27-2.52-.4-3.78l-.44-.05-.57.81c-.35.49-.55,1.2-1.45.84-.17-.06-.52.26-.75.46a3.62,3.62,0,0,1-3,.8,1,1,0,0,1-.91-1.36,12.16,12.16,0,0,0-.07-6.11c-.44-2.06-.65-4.17-.91-6.26-.28-2.33-.57-4.66-.74-7-.39-5.28-.66-10.57-1.07-15.85-.3-3.85-.75-7.7-1.09-11.54-.18-2-.29-4-.42-6-.2-3.06-.43-6.12-.59-9.19-.19-3.66-.33-7.33-.5-11-.06-1.39,0-2.83-1.45-3.72a7.62,7.62,0,0,0-.74-.32c0,2.31-.17,4.48,0,6.62.43,4.72,1,9.43,1.58,14.14.16,1.38.51,2.74.62,4.13.27,3.19.46,6.39.63,9.59.21,3.86.4,7.72.53,11.59.12,3.26.11,6.53.22,9.8.07,2.07.28,4.13.35,6.19,0,.38-.32.77-.45,1.17a2.27,2.27,0,0,0-.14,1c.6,2.88,1.25,5.76,1.84,8.64a4.65,4.65,0,0,1-.1,1.33l-.42.13a3.29,3.29,0,0,1-.65-1c-.63-3.31-1.14-6.65-1.83-9.95-.82-4-1.78-7.86-2.67-11.79-1-4.58-2.1-9.15-3.06-13.75-1.49-7.18-3-14.35-4.3-21.57q-1.5-8.53-2.35-17.17c-.55-5.59-.73-11.21-1-16.83-.1-2.06,0-4.13,0-6.2l-2.13-.48c.33,1.67.8,3.37,1,5.09.22,2.41.18,4.85.33,7.28.17,2.86.4,5.72.65,8.58.47,5.24.85,10.5,1.51,15.72.61,4.9,1.66,9.74,2.25,14.65.26,2.1,1.1,4,1.54,6,.79,3.61,1.4,7.25,2.15,10.86.59,2.84,1.28,5.66,1.92,8.49q1.69,7.46,3.38,14.91c.39,1.7.86,3.39,1.23,5.09a2.75,2.75,0,0,1-.14,1.2.93.93,0,0,1-.61.08,4.23,4.23,0,0,1-.31-1.05c-.12-.71-.17-1.43-.33-2.12-1.73-7.75-3.5-15.49-5.21-23.24-1.14-5.18-2-10.42-3.31-15.55a138.93,138.93,0,0,1-2.92-15.62c-.93-6.61-1.52-13.27-2.26-19.91a2,2,0,0,0-.14-.41,1.33,1.33,0,0,1-2-.37c-1.09-1.3-2.75-1.42-4.23-1.7a5.83,5.83,0,0,1-4.81-4.41,17.44,17.44,0,0,0-1-2.55c.47,2.57.84,5.16,1.41,7.71,1,4.4,2.18,8.75,3.14,13.15,1.33,6.15,2.46,12.35,3.78,18.5q1.58,7.31,3.41,14.56c.93,3.66,1.88,7.34,3.16,10.89,1.8,5,3.92,9.83,5.87,14.75a35.82,35.82,0,0,0,5,9.21,1.45,1.45,0,0,1,.38.86,1.51,1.51,0,0,1-.45,1c-.15.11-.81-.14-.93-.38-2.42-4.83-5.07-9.54-6.79-14.72-1.44-4.34-3.37-8.53-4.85-12.86-1.13-3.31-2-6.72-2.83-10.13-1.17-5-2.2-10-3.24-15-1.12-5.42-2.11-10.87-3.29-16.27-1-4.36-2.25-8.65-3.17-13-1.31-6.2-2.48-12.43-3.61-18.67a109.45,109.45,0,0,1-1.38-15.35c-.2-5.37-.91-10.72-1.4-16.08-.09-1-.19-2.06-.32-3.09a12.8,12.8,0,0,0-.29-1.36c-1.66.52-1.21,1.91-1.24,2.85a75.16,75.16,0,0,0,.2,7.8c.32,4.37.78,8.72,1.19,13.07.34,3.61.55,7.24,1.09,10.82.65,4.32,1.58,8.6,2.39,12.9.45,2.38.83,4.78,1.34,7.16.58,2.72,1.34,5.41,1.9,8.13,1,4.85,1.86,9.72,2.91,14.55.69,3.18,1.62,6.31,2.45,9.47a72.2,72.2,0,0,1,2,8c.65,4.63,2.6,8.82,3.94,13.22,2,6.56,4.14,13.08,6.31,19.59.74,2.22,1.75,4.36,2.63,6.54a2.62,2.62,0,0,1,.27,1,.89.89,0,0,1-.45.67.8.8,0,0,1-.7-.36c-.43-1-.79-2-1.13-3-3-8.93-5.84-17.9-8.87-26.81-2.28-6.72-4.8-13.36-7.12-20.07-1.29-3.72-2.34-7.52-3.6-11.25-2.34-7-3.32-14.28-4.89-21.44-1-4.68-2-9.35-3.09-14q-1.92-8.4-4-16.77c-.92-3.79-1.88-7.57-3-11.32a25.72,25.72,0,0,0-1.73-3.62l-2.91,1.78c3.1,2.73,3.49,6.46,4.42,10,.67,2.58,1.49,5.13,2.19,7.7,1.16,4.3,2.43,8.58,3.38,12.92,1.39,6.29,2.49,12.64,3.79,18.95,1.33,6.48,2.53,13,4.19,19.4,1.48,5.75,3.48,11.36,5.29,17,1.18,3.68,2.46,7.32,3.64,11,1.45,4.52,2.8,9.07,4.27,13.58,1.16,3.56,2.42,7.08,3.68,10.61.4,1.12,1,2.18,1.42,3.29.27.67.89,1.6,0,2a2.45,2.45,0,0,1-2.12-.78c-1.35-1.56-2.51-3.29-3.71-5-2.16-3.06-4.4-6.07-6.42-9.22s-3.75-6.3-5.6-9.46c-.65-1.1-1.27-2.21-1.91-3.31l-3.59-7.73-.47.24c.67,1.37,1.31,2.77,2,4.11C135.42,235.13,136.16,236.21,136.85,237.33Zm-29.8-131.72a55.87,55.87,0,0,1-9.1,7.63c-2.71,2-5.3,4.09-8.06,6A43.64,43.64,0,0,0,80,129c-1,1.36-2,2.76-3.2,4a27.43,27.43,0,0,0-6.85,13.3,18,18,0,0,0-.18,2c1-2.49,1.61-4.9,2.91-6.84a59.74,59.74,0,0,1,6.15-7.27c2.54-2.7,5.21-5.27,7.86-7.85s5.46-5.48,8.42-7.93c3.12-2.57,6.21-5.11,8.56-8.44,1.07-1.52,2.25-3,3.38-4.42l3.52-2.6-2.34.32C107.82,104.07,107.44,104.84,107.05,105.61Zm-39.89,3c0-.19-.07-.39-.11-.59a5.46,5.46,0,0,1,1.34-.46c.86,0,1.74.06,2.61.09,4.62.13,9.24.38,13.86.34a43.87,43.87,0,0,1,14,2.48,1.45,1.45,0,0,0,1.19-.16c1.44-1.13,2.83-2.32,4.22-3.52.47-.41.51-.85-.06-1.28-2.72-2.07-5.34-4.29-8.17-6.2-3.21-2.16-6.56-4.19-10.4-5-3.3-.72-6.66-1.14-10-1.74-.35-.06-.65-.4-1-.62.35-.17.73-.53,1-.48,2.94.49,5.89,1,8.8,1.61,1.78.38,3.51,1,5.43,1.54a11.63,11.63,0,0,0-.34-1.72A19.12,19.12,0,0,0,85,85.81c-.2-.21-.21-.59-.32-.88.32,0,.72,0,1,.13a4,4,0,0,1,1.07,1.11c1.3,2.08,2.53,4.22,3.86,6.28.55.83.83,1.57.25,2.24l14,9.1c-.47-1.3-.92-2.83-1.59-4.26a31.12,31.12,0,0,0-5.52-8.72c-1.35-1.41-2.47-3-3.69-4.55l.3-.41c.29.15.66.23.85.46,1.1,1.3,2.15,2.64,3.22,4a30.79,30.79,0,0,1,2.8,3.49c1.21,2,2.19,4.23,3.27,6.35.64,1.25,1.3,2.49,2,3.73l.36-.11c0-.65,0-1.3,0-2,0-.37,0-1,.16-1.06,1.07-.35.82-1.16.84-1.94a52.13,52.13,0,0,0-1.07-9.73A14,14,0,0,0,102.32,81a16.63,16.63,0,0,0-8.66-4.09,60.81,60.81,0,0,0-20-.27A27.57,27.57,0,0,0,63,80.33,41.44,41.44,0,0,0,51.28,91.68c-2.52,3.48-4.81,7.13-7.06,10.79-2.95,4.82-6.34,9.39-8.54,14.66-1,2.42-2.18,4.8-3,7.3A53.09,53.09,0,0,0,31.4,131c-.74,4,.17,7.45,3.56,9.93,1.42,1.05,3,1.86,4.53,2.78,2.24,1.36,4.47,2.74,6.72,4.09A68.2,68.2,0,0,0,57,153.16a13.63,13.63,0,0,1,4.67,3.76,48.83,48.83,0,0,1,3.37,5c.78,1.12,1.68,2.16,2.76,3.53,0-1.63-.06-2.94,0-4.24.2-4,.33-8.1.69-12.13a24.23,24.23,0,0,1,4-11.75c.7-1,1.39-2.07,2.25-3.35a8.72,8.72,0,0,0-1.32.31c-3.39,1.56-6.86,3-10.15,4.75a17.38,17.38,0,0,0-7.12,7.24,17.12,17.12,0,0,0-.79,2.14c-1.1-.68-.66-1.49-.37-2.15a16.44,16.44,0,0,1,4.8-6.14,44.9,44.9,0,0,1,12.36-6.66c1.41-.54,3-.78,4.2-1.63a20.71,20.71,0,0,0,3.34-3.69c1.25-1.49,2.43-3,3.7-4.52,1-1.1,2-2.12,3.2-3.38a15.19,15.19,0,0,0-2.93.17c-2.23.6-4.44,1.28-6.61,2-1.26.45-2.41,1.2-3.66,1.69-.88.35-1.86.42-2.74.73-2.29.82-4.52,1.84-6.83,2.55-4.54,1.38-9.14,2.55-13.67,4-2.65.81-5.14,2-6.28,4.85-.06.17-.44.21-.67.3-.1-.27-.34-.6-.26-.81a5.23,5.23,0,0,1,.92-1.65,13.13,13.13,0,0,1,6.82-3.86c1.28-.29,2.54-.68,3.8-1.06,2.86-.87,5.72-1.74,8.57-2.64,1.38-.44,2.74-.94,4.1-1.41l-.06-.34c-.54-.07-1.08-.13-1.61-.21-2.21-.32-4.42-.55-6.61-1-2-.38-3.92-1.23-5.91-1.41-3.18-.27-6.41-.58-9.58.31-.31.08-.74-.24-1.34-.46a5.42,5.42,0,0,1,.69-.47,2.73,2.73,0,0,1,.82-.2,97.16,97.16,0,0,1,10.25.28c3.93.49,7.75,1.87,11.8,1.61a53.25,53.25,0,0,0,6.59-.39,40.61,40.61,0,0,0,5.72-2c2.78-1,5.5-2.2,8.54-2.1a12,12,0,0,1,2,.42l9.77-7.47c-2.34-.68-4.39-1.42-6.49-1.86-6.57-1.39-13.24-1-19.88-1.08C70.21,108.72,68.68,108.67,67.16,108.62Zm1.57,50.66.53.19a7.31,7.31,0,0,0,.6-.89c.87-1.93,1.72-3.86,2.59-5.79a3.27,3.27,0,0,1,3-2c.87,0,1.75.13,2.62.15a10.06,10.06,0,0,0,2.58-.09c2.32-.59,4.58-1.38,6.89-2,2.11-.54,4.3-.79,6.38-1.4,3.47-1,6.86-2.28,10.32-3.32a62.31,62.31,0,0,0,11.82-4.5c2-1.07,4-2.21,5.92-3.36A102.25,102.25,0,0,0,136.9,126a26.7,26.7,0,0,0,7.88-10.51,47.9,47.9,0,0,0,2.47-8.35,21.89,21.89,0,0,0,.32-7.12c-.65-4.41-1.79-8.75-2.67-13.13a52,52,0,0,0-4.36-13.76,11.48,11.48,0,0,0-3.89-4.88,3.27,3.27,0,0,0-3.28-.25c-.9.41-1.78.89-2.71,1.23-5,1.83-8.7,5.41-11.67,9.68-2.52,3.61-3.24,7.93-4.06,12.17-.18.89-.43,1.76-.67,2.63-.17.64-.37,1.27-.55,1.9,1.17-1.44,2-3,3.09-4.42a60.18,60.18,0,0,1,5-6.24,34.89,34.89,0,0,1,4.88-3.78,3.55,3.55,0,0,1,1.31-.32c0,1.45,0,1.44-1.22,1.91a2.12,2.12,0,0,0-.61.37c-1.25,1-2.54,2-3.73,3.12a19.87,19.87,0,0,0-3.12,3.24c-2.16,3.2-4.13,6.52-6.17,9.79a9.63,9.63,0,0,0-.5,1c.07.11.15.21.22.31.82-.4,1.62-.83,2.45-1.21,2.72-1.23,5.47-2.38,8.15-3.68a15.11,15.11,0,0,1,6.75-1.25c.33,0,.79,0,1,.18a1,1,0,0,1,.07,1,1.38,1.38,0,0,1-1,.18,9.88,9.88,0,0,0-6.16.79q-5.19,2.43-10.32,5c-1,.51-2.48.61-2.47,2.28,0,.14-.26.28-.4.42-1.95,1.93-4,3.8-5.82,5.8-1.31,1.4-2.42,3-3.62,4.49,0,.1.09.19.13.28.85-.08,1.7-.14,2.55-.24,3.83-.45,7.48-.11,10.73,2.23a18.4,18.4,0,0,0,2.36,1.59c1,.48,1,1,.2,1.79a12.63,12.63,0,0,0-1.14-.94,36.05,36.05,0,0,0-5.3-3.12c-3.24-1.29-6.61-.61-9.91,0-1,.18-1.91.08-2.78.91-2.53,2.37-5.22,4.56-7.83,6.83-.88.76-1.73,1.55-2.42,2.16a9.67,9.67,0,0,1,2.12,1.21c1.56,1.53,3,3.14,4.49,4.77.9,1,1.7,2.1,2.51,3.11a8.51,8.51,0,0,1-.68.59,2.94,2.94,0,0,1-.42.2,36.25,36.25,0,0,0-8.91-9.08c-1,.9-2,1.77-2.89,2.74-2.34,2.5-4.59,5.08-7,7.55a25.69,25.69,0,0,0-4.45,5.86A30.83,30.83,0,0,0,69.85,152C69.41,154.41,69.1,156.85,68.73,159.28ZM230,50.27a15,15,0,0,0-.21-1.67c-1-3.73-2-7.46-4.32-10.66a15.49,15.49,0,0,0-6.91-5.73,34.07,34.07,0,0,0-15.95-2.09c-3.25.37-6.53.51-9.78.87-5.22.57-10.53.84-15.64,2-5.34,1.18-10.49,3.24-15.74,4.9-1.8.57-3.6,1.44-5.52.25-.23-.14-.79.08-1.09.29-2,1.42-4,2.87-5.94,4.36a27.83,27.83,0,0,0-2.25,2.08A22.13,22.13,0,0,0,149,46.14a36.92,36.92,0,0,1,10.18,5.72,113.21,113.21,0,0,1,9.25,9c3.56,3.76,6.94,7.69,10.39,11.55a2,2,0,0,1,.28.61A6.78,6.78,0,0,0,180,75q3.67,4.17,7.52,8.18c1.71,1.77,3.69,3.3,5.31,5.14a20.17,20.17,0,0,0,4.85,4.33c3.3,1.94,7.14,1.23,9-2.11a7.1,7.1,0,0,1,2.08-2.22c1.75-1.23,3.64-2.28,5.44-3.44,3.88-2.49,7.14-5.9,11.45-7.76a1.51,1.51,0,0,0,.61-.94,3.75,3.75,0,0,0-.81-3.59,31.27,31.27,0,0,0-3.22-3.19c-4-3.19-8.13-6.25-12.43-9.08a38.59,38.59,0,0,0-12.27-5.12c-4.43-1.09-9-1.73-13.45-2.69q-9.81-2.09-19.56-4.38a13.51,13.51,0,0,1-3.25-1.41c-.25-.14-.37-.76-.32-1.13a1,1,0,0,1,.7-.65c1.49-.21,3-.27,4.49-.51,4-.66,8.12-1.16,12.09-2.14a41.8,41.8,0,0,1,11.43-1.62,55.93,55.93,0,0,1,15,2.4,44.16,44.16,0,0,0,7.72,2.1A50.32,50.32,0,0,1,226.19,49C227.35,49.51,228.6,49.81,230,50.27ZM180.58,263.53c.15-4.09.32-8.22.45-12.36.16-4.71.26-9.41.42-14.11.23-6.42.57-12.84.74-19.26.15-5.74,0-11.49.25-17.23.27-6.09.82-12.18,1.33-18.26A53.18,53.18,0,0,1,186,169.36c1-2.79,2.15-5.5,3.11-8.29a74.8,74.8,0,0,1,7.12-14.16c.4-.65.75-1.33,1.16-2.06a29.08,29.08,0,0,1-4.72,1.77,70.27,70.27,0,0,1-7.92,1c-4.12.34-8.26.46-12.37.88a32.18,32.18,0,0,0-5.77,1.34,1.7,1.7,0,0,0-.85,1.29c-.08,1.5,0,3,0,4.52,0,1.77,0,1.64,1.61,2,2.66.64,5.44,1.19,7.27,3.52a44.31,44.31,0,0,1,2.73,4.15,15.52,15.52,0,0,1,2.23,12.27c-1,4.16-2.42,8.25-3.7,12.36a14.21,14.21,0,0,1-1.32,3.19c-.87,1.44-1.82,1.51-3.18.52-.83-.6-1.7-1.14-2.73-1.83a12.37,12.37,0,0,0-.19,1.43c0,4,0,7.95.2,11.91.3,5.3.79,10.6,1.28,15.89.36,3.86.87,7.71,1.25,11.58.29,3,.45,5.95.74,8.93.52,5.23,1.08,10.47,1.62,15.7.29,2.76,1.45,5.42.95,8.28a3.1,3.1,0,0,0,.24,1.08,5.88,5.88,0,0,0,1.42-.44,1.55,1.55,0,0,0,.56-.9c.3-1.15.51-2.32.81-3.48a3.38,3.38,0,0,1,.54-.87c.21.3.56.58.6.9a14.75,14.75,0,0,1,0,2.11ZM165.7,148.63a25.68,25.68,0,0,1,3.32-.72c2.17-.18,4.36-.15,6.54-.32,4.29-.35,8.58-.69,12.85-1.22,3.56-.44,7-1.44,9.61-4.08,1.61-1.61,2.85-3.73,2.61-5.85a29.36,29.36,0,0,0-2.42-7.8c-1.62-3.84-4.14-7.16-6.63-10.49-3.65-4.87-7.51-9.48-13.08-12.35-2.29-1.18-4.48-2.11-7-.89-.72.34-1.43.69-2.15,1-2.45,1.08-4.9,2.14-7.32,3.19a26.26,26.26,0,0,1,2.51,10.15,14,14,0,0,0,.24-2.13c0-2.6,0-5.21,0-7.81,0-.82.34-.92,1.07-.5,1.07.63,1.17,1.7,1.44,2.7.67,2.5,1.41,5,1.93,7.51a19.48,19.48,0,0,1,.65,5.84,89,89,0,0,1-1.86,9.22,4.33,4.33,0,0,1-.75,1.86,5.94,5.94,0,0,0-1.51,4.13c.05,1.67,0,3.35,0,5ZM114.15,40.15c-.41,1.45-.75,1.54-2,.43a4.12,4.12,0,0,0-.57-.44c-2.23-1.29-4.48-2.56-6.7-3.88a44.91,44.91,0,0,1-8.59-6.62c-1.51-1.49-2.91-3.1-4.38-4.68-.36.77-.76,1.59-1.12,2.42-.76,1.78-1.91,3.46-1.82,5.5a4.73,4.73,0,0,0,.6,2.68,11.19,11.19,0,0,0,3.4,2.72A44,44,0,0,0,106.66,43c3.83.54,7.61,1.38,11.43,2,3,.48,5.7,1.47,7.68,3.93a7.41,7.41,0,0,0,1.12.88c-2.22,6.53-.52,13.17-.38,20l2-1.06a4.76,4.76,0,0,1-.24-1.17c.12-2.46.27-4.92.41-7.38s.19-5,.42-7.52a2.33,2.33,0,0,1,2.65-2.33c1.42,0,2.83.18,4.25.22a14.2,14.2,0,0,0,3.69-.07,23.52,23.52,0,0,1,11-.31c2.15.51,4.27,1.15,6.4,1.73a33.39,33.39,0,0,0-5-3.21c-2.71-1.43-5.52-2.66-8.19-4.14-2.18-1.21-4.25-2.52-6.89-2.47a10.57,10.57,0,0,1-3.26-.45,1.81,1.81,0,0,0-2,.47,2.14,2.14,0,0,1-2.83.51c-1.47-1.09-3.2-2.21-4-3.74a37.26,37.26,0,0,0-3.72-5.49c-4.11-5.27-7.51-11.1-12.37-15.77-3-2.84-7-4-10.91-1.58-2.08,1.28-3.27,3.15-4.5,5.11a2.91,2.91,0,0,0,.3,3.78,42.72,42.72,0,0,0,10.78,9.55C107.58,36.46,110.83,38.22,114.15,40.15Zm82-19.89c-2.18-2.83-4-3.58-5.58-4a39.83,39.83,0,0,0-11.52-.82c-4,.24-8.08.8-12.1,1.34-3.54.47-7.11.91-10.58,1.72-3.32.78-6.52,2-9.79,3a27,27,0,0,1-2.65.67c-1.83.37-3.69.63-5.5,1.09-1.23.3-1.54,1.16-1.19,2.38a2.47,2.47,0,0,1,.17,1.39,19.42,19.42,0,0,1-1.9,4c-2.09,3-4.37,5.88-6.54,8.83-.24.33-.52,1.07-.42,1.15.58.45,1.23,1,2,.44A12.88,12.88,0,0,1,132,40.43a2.74,2.74,0,0,1,1.51-.28c1.21.17,2.4.48,3.6.7,1.43.26,2.87.46,4.3.71a2.93,2.93,0,0,1,2.29,1.4c.34.59,1.11.93,1.45,1.2a32.32,32.32,0,0,1,2.59-2.27c3.47-2.47,6.81-5.1,10.7-6.93,4.79-2.26,9.38-4.94,14.22-7a105.59,105.59,0,0,1,11.71-4c3-.89,6-1.44,9-2.26A15.19,15.19,0,0,0,196.19,20.26ZM161.76,169.15a11.6,11.6,0,0,1,3.52,4.84c1.31,2.93,2.9,5.74,4.35,8.62a2.28,2.28,0,0,1,.17,1.13c0,.15-.44.43-.48.4a3.31,3.31,0,0,1-.79-.84c-1.55-3-3.08-6-4.55-8.84-.37,1.84-.79,3.89-1.2,5.94l-.53-.07c.08-.54.18-1.08.23-1.62a29.19,29.19,0,0,0,.37-5.93,3.12,3.12,0,0,0-1.13-2.34c-1.57-1.29-3.17-2.54-4.81-3.73a11,11,0,0,0-2.11-.9q.22,8.73.43,16.63c1.15.66,1.93,1.14,2.75,1.56,2.19,1.11,4.49,2.05,6.59,3.32s4.09,3,6.19,4.44c2.53,1.74,3.06,1.5,4-1.45s1.81-5.94,2.75-8.9c1.46-4.63,2.13-9.22-.11-13.83-1.74-3.56-3.75-6.92-7.86-8-2-.51-4.32-.92-6.18-.35-2.36.71-4.41,2.44-6.56,3.79a5.92,5.92,0,0,0-1.16,1.28,25.08,25.08,0,0,1,3.33,2.67c1,1.16,2.67.37,3.7,1.49ZM101.84,196c0-.09-.09-.19-.13-.28-1.42.44-2.83,1-4.27,1.32a12.82,12.82,0,0,0-5.64,3,4.44,4.44,0,0,1-1.33.78c-.17.06-.46-.16-.69-.25.09-.2.12-.49.28-.59a54.17,54.17,0,0,1,5.52-3.28,50.81,50.81,0,0,1,5.87-2,1.37,1.37,0,0,0,1.08-1.45,4.7,4.7,0,0,1,1-3.45,2.41,2.41,0,0,0,.39-1.11c.17-.74,0-1.17-.89-1.29-3.09-.43-5.63.85-7.94,2.59-2.57,1.94-4.95,4.14-7.53,6.08a30.51,30.51,0,0,0-6.24,6.19c-1.76,2.36-2.57,4.8-.74,7.49a2.26,2.26,0,0,1-.3,3.12,14.8,14.8,0,0,0-1,1.33l.21.3c2.74-1.34,5.67-1,8.56-1.27a12.65,12.65,0,0,0,4.3-.9c3-1.41,5.8-3.13,8.71-4.69,4.46-2.38,9-4.68,12.88-7.94a49.66,49.66,0,0,0,5.46-5.49,3.2,3.2,0,0,0,.26-3.91,2.6,2.6,0,0,0-3-1.29,10.37,10.37,0,0,0-3.47,1.46,59.67,59.67,0,0,1-8.55,5.24c-3.78,1.79-7.58,3.63-10.46,6.87-1.68,1.89-3.59,3.57-5.39,5.35-.39.38-.76.77-1.14,1.16l-.3-.33C91.67,203.92,96,199.17,101.84,196Zm37.95-24c.48-1.69.81-3.24,1.35-4.7a6.38,6.38,0,0,1,7.16-4.27c.11,0,.28.09.34,0,1.13-.91,2.13-.18,3.12.26,1.84.81,1.83.71,3.39-.56a59.91,59.91,0,0,1,5.63-4c.65-.42,1.14-.77,1.22-1.59.14-1.46.35-2.92.49-4.39a8.72,8.72,0,0,0-.24-1.59c-1,.75-1.71,1.3-2.44,1.89-1.37,1.12-2.73,2.28-4.12,3.38-.84.67-1.41.24-1.73-.6-.59-1.52-1.16-3-1.66-4.6-.94-2.88-1.74-5.81-2.75-8.66a7.5,7.5,0,0,0-4.72-4.76c-1.73-.6-3.46-1.15-5.19-1.75-1.21-.42-2.41-.87-3.66-1.33.22,1.83.51,3.59.63,5.36.24,3.33.38,6.68.59,10,.22,3.69.43,7.38.74,11.07.15,1.74.5,3.47.8,5.2S139.43,170.16,139.79,172.07Zm16,12.57a2.63,2.63,0,0,0-.19.63c.32,3,.63,6.1,1,9.14.21,1.66.53,3.3.8,5,.9,5.42,1.72,10.86,2.73,16.26.54,2.86,1.46,5.64,2.14,8.47.58,2.43,1.06,4.89,1.57,7.34.32,1.52.6,3,.92,4.56q1.25,5.91,2.53,11.8a10.83,10.83,0,0,0,.54,1.54,12.12,12.12,0,0,0,0-2.55c-.06-3.51,0-7-.13-10.51-.14-4.66-.32-9.32-.58-14-.2-3.42-.51-6.84-.87-10.24-.32-3.05-.85-6.08-1.14-9.13-.34-3.61-.49-7.23-.79-10.85-.13-1.48,0-3.12-1.36-4.18a10.31,10.31,0,0,0-2.24-1.32C159.15,185.89,157.49,185.29,155.82,184.64Zm93-41.72c0-.14,0-.27.08-.41A13,13,0,0,0,246,142a8.91,8.91,0,0,1-5.55-1.84c-2.43-1.68-4.77-3.25-8-3.53a17.83,17.83,0,0,0-13.88,4.69c-2.17,1.88-4.18,3.92-6.26,5.9-.21.2-.39.44-.63.72a3.75,3.75,0,0,0,.46.14c2.59.39,5.23.63,7.78,1.2a38.43,38.43,0,0,0,10.39,1.28c4.28-.2,8.12-1.43,11.13-4.68C243.37,143.74,245.68,142.36,248.77,142.92ZM145.19,217.14l.26-.14c-.08-.34-.18-.67-.25-1q-2.69-12.62-5.36-25.22c-.82-3.82-1.7-7.63-2.53-11.44-.64-3-1.4-6-1.86-9-.77-5.12-1.41-10.27-2-15.42s-1.08-10.46-1.58-15.7c-.23-2.37-.39-4.74-.61-7.37-2.33,1.47-4.48,2.79-6.58,4.19-.18.12-.18.71-.08,1,1,3.31,2.19,6.58,3.07,9.93.92,3.53,1.53,7.14,2.35,10.7.89,3.87,1.83,7.73,2.79,11.58.58,2.32,1.35,4.6,1.84,6.94.81,3.93,1.4,7.91,2.21,11.84.87,4.25,1.74,8.51,2.88,12.7,1.19,4.41,2.68,8.75,4.09,13.11C144.2,215,144.73,216.05,145.19,217.14ZM152.81,184c0-.2,0-.58-.06-1-.13-2.19-.24-4.37-.4-6.55-.2-2.74-.39-5.48-.68-8.21a9.17,9.17,0,0,0-.73-2.24c-.62-1.68-2.25-1.77-3.62-2.08a3.57,3.57,0,0,0-2.35.38c-2.11,1.17-3,3.22-3.46,5.48-.64,3.31.61,6.26,1.82,9.24a4.44,4.44,0,0,0,3,2.6C148.48,182.38,150.58,183.18,152.81,184Zm12.95-48.4.33.09a4,4,0,0,0,.72-1c.59-1.88,1.21-3.76,1.65-5.68a20.22,20.22,0,0,0-.15-10.16c-.54-1.91-1-3.85-1.46-5.78-.24-.92-.5-1.84-.75-2.76l-.34,0Zm-2.26,22a1.24,1.24,0,0,0,1.12-1.45c0-2.27-.14-4.54-.1-6.81.08-5.42.28-10.83.35-16.25,0-2.46-.14-4.92-.22-7.38h-.46C164,136.25,163.73,146.84,163.5,157.55ZM125,216.89c-.1-.21-.18-.42-.28-.62a60.12,60.12,0,0,0-8-12.38,19.62,19.62,0,0,0-2.41-2.13c-.62-.5-1.09-.28-1.32.32A132.91,132.91,0,0,1,125,216.89Z" transform="translate(-29.71 -13.44)"/><path class="cls-1" d="M188.74,199.63l-.82.56-.36-.06a24.15,24.15,0,0,1,.73-3.42A23.59,23.59,0,0,1,199,184.13c3.31-1.88,7.09-3,10.69-4.32,2.76-1,5.54-2,8.38-2.84,2.52-.71,5.12-1.15,7.69-1.66a1.14,1.14,0,0,1,1,.38,1.48,1.48,0,0,1-.09,1.2,50.82,50.82,0,0,1-3.14,4.89,62.47,62.47,0,0,1-4.65,5.38c-1.65,1.72-3.43,3.32-5.22,4.89a21.69,21.69,0,0,1-2.58,1.7c-1.06.69-2.11,1.42-3.2,2.06-3,1.76-6,3.42-9,5.24-2.52,1.56-3,3.4-2.34,6.26.47,2.14.71,4.32,1.11,6.48,1,5.28.06,10.47-.63,15.68s-1.25,10.26-2,15.37c-1,6.62-2,13.23-3.08,19.84-.06.35-.4.66-.61,1a3.88,3.88,0,0,1-.21-1.23c.37-2.4.83-4.78,1.21-7.18.64-4.08,1.27-8.17,1.85-12.27.35-2.49.55-5,.88-7.48.57-4.22,1.24-8.42,1.75-12.64a39.37,39.37,0,0,0-.61-13.77c-.15-.66-.26-1.33-.4-2a5.72,5.72,0,0,0-1.13-2.92,4.76,4.76,0,0,1-.78-2.47,12.49,12.49,0,0,1,2.37-8.65c2.28-3.38,5.67-5.28,9.21-7,1.75-.85,3.52-1.69,5.28-2.53l4.54-2.21.2.39c-2.68,1.58-5.34,3.2-8.06,4.71-2,1.12-4.24,1.9-6.14,3.18a14.49,14.49,0,0,0-6.31,8.71,11.52,11.52,0,0,0-.06,3.62,4.82,4.82,0,0,1,2.61-3.27q4.77-2.83,9.57-5.64a45.25,45.25,0,0,0,10.2-7.81c2-2.12,4.19-4,5.6-6.64.7-1.28,1.38-2.57,2.21-4.11a31.48,31.48,0,0,0-4.48.74c-3,1-6,2.19-9,3.23-2.7.93-5.44,1.74-8.16,2.64-2.94,1-5.28,2.91-7.61,4.86a15.32,15.32,0,0,0-4.56,5.86c-1.83,4.39-3,8.34,1.75,12.92,1.74,1.67,2.28,4,2.67,6.28,1,5.94,0,11.75-1,17.59-.81,5-1.41,10-2.11,15q-1.25,9-2.5,18a4,4,0,0,1-.1,1.05c-.13.29-.47.49-.72.72a3.61,3.61,0,0,1-.47-.83,4.47,4.47,0,0,1,0-1.05c-1.1.07-1.56-.47-1.14-1.49.35-.85-.31-1.2-.63-1.76a3.68,3.68,0,0,1-.24-1.22,4.74,4.74,0,0,1,1.16.45,11.56,11.56,0,0,1,1.27,1.4c.22-1,.4-1.74.51-2.45,1.13-7.87,2.31-15.72,3.36-23.6.73-5.53,1.52-11.08,1.83-16.64a15.12,15.12,0,0,0-2.36-9.83c-.48-.68-1.09-1.26-1.63-1.89A8,8,0,0,1,188.74,199.63Z" transform="translate(-29.71 -13.44)"/><path class="cls-1" d="M132.5,275.56a2.87,2.87,0,0,1-.58-.79c-.79-2.58-1.58-5.17-2.3-7.77a33.54,33.54,0,0,0-5.81-12.09,23.59,23.59,0,0,0-2.36-2.23c1.4-.59,1.8.47,2.37.94a13.2,13.2,0,0,1,1.64,1.94c1-5,.29-9.66-5.39-11.92a17.4,17.4,0,0,0-6.86-1.37,6.85,6.85,0,0,1-2.11-.34c-2.36-.74-4.68-1.59-7-2.26a10.83,10.83,0,0,0-2.62-.11,7.63,7.63,0,0,0,.23,2.65c1.29,2.74,2.69,5.45,4.2,8.08a10.17,10.17,0,0,0,9.78,5.48c1.69-.06,3.4,0,5.21,0-1-2.22-3.07-3.26-5.24-4.22.88-1.15,1.8-.62,2.41-.29a8.93,8.93,0,0,1,3.8,3.82c1.05,2,2.43,3.85,3.4,5.89s1.51,4.2,2.39,6.24c1,2.26,2.07,4.45,3.21,6.63.28.55.66,1,0,1.37-.23.11-.89-.29-1.14-.62-2.34-3.22-3.31-7-4.5-10.72a29.93,29.93,0,0,0-2.86-5.75,2.61,2.61,0,0,0-1.8-.94,44.57,44.57,0,0,0-6.31-.48c-3.59.08-6.19-1.73-8.26-4.3A35.68,35.68,0,0,1,100,241.92c0-.11-.14-.23-.13-.33.16-1,0-2.34.6-3s1.89-.55,2.77-.32c2.62.68,5.16,1.66,7.77,2.38a14.53,14.53,0,0,0,3.78.5,14.39,14.39,0,0,1,7.92,2.32,9.56,9.56,0,0,1,4.35,10.23,17.12,17.12,0,0,0-.45,2.22,4.5,4.5,0,0,0,.29,2.17A49.13,49.13,0,0,1,131,268.5c.44,1.77,1.07,3.5,1.57,5.26a10.46,10.46,0,0,1,.24,1.68Z" transform="translate(-29.71 -13.44)"/><path class="cls-1" d="M187.26,284.86c.1-1.79.28-3.59.28-5.38a3.67,3.67,0,0,0-.72-1.81c-.76-1.18-2.22-2-1.71-3.82.16-.56-1.65-1.41-2.66-1.3.63,2.13,2,4.29-.19,6.41.41.74.88,1.47,1.26,2.25a1.8,1.8,0,0,1-1.23,2.69,3.37,3.37,0,0,1-3.88-1.86,3,3,0,0,1,0-1.16l.91.61a14.67,14.67,0,0,0,2.21,1.44,1.43,1.43,0,0,0,1.32-.36,1.62,1.62,0,0,0,0-1.41c-.62-1.16-1.38-2.23-2.09-3.33-.11-.17-.31-.31-.33-.49a4.94,4.94,0,0,1,0-.94,5.68,5.68,0,0,1,1,.28,8.73,8.73,0,0,1,1,.68,4.38,4.38,0,0,0,.45-1.25,4.76,4.76,0,0,0-1.69-3.91,4.48,4.48,0,0,1-.5-.83h3.11c.14-4.37.61-6,2-6.12a22.38,22.38,0,0,1-.68,2.51c-.81,2.05-.77,3.85.86,5.58a7.31,7.31,0,0,1,1.69,3.07c.41,1.6,1.68,2.15,2.82,2.91,1.54,1,3.18,1.95,4.68,3,.57.42.84,1.22,1.34,1.77a3,3,0,0,0,1.09.51.62.62,0,0,0,.35,0c1.18-.33,2.43-.46,3.19.61s.28,2.28-.34,3.28a40.08,40.08,0,0,1-2.48,3.34,3.25,3.25,0,0,1-.89.54l-.32-.33c.42-.56.86-1.11,1.26-1.69a17.22,17.22,0,0,0,2-3c.64-1.51-.15-2.32-1.78-2-1.94.34-3.55,1.14-4.22,3.19,0,.13-.19.23-.31.36-.33-.93.09-1.93,1.17-2.95s1.15-2.19-.13-3c-1.68-1.12-3.5-2-5.27-3-.45-.26-.92-.46-1.63-.81-.16,1.67-.3,3.22-.44,4.77l.41.06c.14-1,.28-2,.41-3.06a8.21,8.21,0,0,1-.26,4.71c-.39,1.33-.88,2.64-1.25,4a4,4,0,0,0,.91,4.3c1.85-1,2.8-3,3.64-5s1.3-4.08-.61-6.18A3,3,0,0,1,193,285.8a12.21,12.21,0,0,1-4.32,9,5.78,5.78,0,0,0-1.08,1.38A8.1,8.1,0,0,1,183,299.9c-.87.27-2-.19-3-.32,0-.19,0-.39,0-.58a5.81,5.81,0,0,1,1.56,0c2.17.6,5-1.69,4.93-4-.07-1.61,0-3.22,0-5a4.2,4.2,0,0,1-2.91-.09c-.35-.17-.49-.76-.72-1.17a4.4,4.4,0,0,1,1.22.23,1.68,1.68,0,0,0,2.18-.38,5.43,5.43,0,0,0,.65-2.21c0-.11-.47-.33-.75-.47a2.44,2.44,0,0,1-1-3.64,7.85,7.85,0,0,0,.56,1.68,5.9,5.9,0,0,0,1.11,1.06Z" transform="translate(-29.71 -13.44)"/><path class="cls-1" d="M236.17,367.81a2.6,2.6,0,0,1-.42,3.4c-1.06-1,0-2.4-.49-3.47l-1.57.72-.34-.26c1.65-2,1.71-4.32,1-6.73,1.43.27,1.68.77,1.42,2.25-.16.94-.31,1.88-.47,2.89,1.7-1.14,2.61-4.15,1.61-5.41a26.7,26.7,0,0,0,2.85-2.32,7.42,7.42,0,0,0,1.34-2.36c.12-.27-.21-.73-.33-1.09,1.54-3,.44-5.72-.71-8.56-2.19,1.52-.45,3.85-1.31,5.66-.25-.16-.47-.23-.49-.33-.35-1.92-1.74-3.18-2.87-4.6a2.45,2.45,0,0,1-.27-.88c.35.06.81,0,1,.19.68.65,1.28,1.4,2,2.22.56-1.22,1.06-2.33,1.63-3.56a11.76,11.76,0,0,1-2.4-5.26l.43-.29a4.36,4.36,0,0,1,.91,1c.57,1.18,1,2.4,1.56,3.6.4.93.64,1,2,.57-.41.72-.67,1.16-1,1.69.22.93.48,2,.76,3.17,1.22-.14,1.38.68,1.32,1.61a5.3,5.3,0,0,1-.3,1.88c-.81,1.67-.11,3.78-1.56,5.25-.39.4-.71,1-1.18,1.17-1.44.64-1.78,1.89-2.22,3.22C237.62,364.7,236.87,366.16,236.17,367.81Z" transform="translate(-29.71 -13.44)"/><path class="cls-1" d="M107.85,299.75l-1.25-.87c1-.69,1.9-1.38,2.86-1.89,2.8-1.48,4.36-4.11,6.11-6.54.16-.24-.41-1.11-.78-1.59-.9-1.2-.25-2.31.13-3.4.3-.86,1-1.21,2-.87a3.23,3.23,0,0,0-.82.46c-.54.55-1.43,1-.44,2,.43.45.4,1.34.59,2l.41.07,1.68-2.54.32.11a3,3,0,0,1-.26,1.07c-.93,1.29-1.91,2.54-2.88,3.8-.43.55-1.28.87-.87,1.87.07.16-.32.62-.59.82-1.65,1.23-3.32,2.42-5,3.63-.15.11-.3.24-.58.47l1.23.51-4,5.2,1.89.11c-.64,2-2.18,3.22-3.12,5l.78.16c.69.12.87.5.62,1.12-.37.89-.78,1.75-1.09,2.66a3.49,3.49,0,0,0-.07,1.21,4.62,4.62,0,0,1,.11.95.79.79,0,0,1-.69.2c-.29-.2-.7-.57-.67-.85a13.62,13.62,0,0,1,.5-2.43c.13-.5.33-1,.52-1.52-.29-.09-.51-.15-.72-.23l-1-.47c.19-.31.36-.63.58-.93q1.29-1.77,2.6-3.53c-1.48-1.15-1.47-1.13-.38-2.57C106.37,301.91,107.08,300.85,107.85,299.75Z" transform="translate(-29.71 -13.44)"/><path class="cls-1" d="M140.24,308a7.44,7.44,0,0,1-1.32-2.2,26,26,0,0,1-.18-4.15,1.29,1.29,0,0,1,.17-.69,15.29,15.29,0,0,1,2-3,11.45,11.45,0,0,1,2.83-1.59,5.36,5.36,0,0,1,1-.27c0-.13.06-.17,0-.2-.35-2.4-.25-2.58,2.08-3.56.79-.34,1.6-.65,2.63-1.07l-1.1-.45c-1.44-.57-1.62-1.42-.33-2.31a17.41,17.41,0,0,1,3.7-1.88,13.52,13.52,0,0,1,2.93-.52c1-.14,1.94-.24,2.91-.36l.2.27c-.37.26-.72.67-1.13.73-1.37.23-2.78.22-4.13.51a18.55,18.55,0,0,0-3.34,1.21c-.36.15-.61.53-1.18,1l2.5.76c.31.1.61.24.91.36-.23.33-.38.81-.7,1-1.18.57-2.41,1-3.62,1.53-1.75.73-1.88,1.26-.75,2.74a3,3,0,0,1,.29.91,6,6,0,0,0-.84.17,19.65,19.65,0,0,0-3.87,1.34c-1.06.62-.92,1.38,0,2.17.23.2.56.5.54.73a3,3,0,0,1-.46,1.46c-.07.11-.81-.15-1.19-.34s-.42-.43-.64-.67a4.2,4.2,0,0,0,.33,5c.23.26.18.78.25,1.18Z" transform="translate(-29.71 -13.44)"/><path class="cls-1" d="M211.17,381.44c-.82-1.72-1.44-3.07-2.08-4.4-.19-.39-.48-.72-.68-1.1-.55-1.08-1.12-2.15-1.57-3.27-.12-.3.18-.76.29-1.14a3.48,3.48,0,0,1,.72.88c.36.88.62,1.8,1,3,1-1.38,1.57-2.58,3.07-2.84-.61,1-1.19,1.91-1.76,2.84l.27.41,2.32-.49c-.42,1.13-1.59,1.06-2.47,1.72.19.59.22,1.44.66,1.88,1.2,1.21,1.06,2.62,1,4.08a10.55,10.55,0,0,0,.07,2,1.39,1.39,0,0,0,.63.89c.12.08.53-.31.81-.49l.17-.11,2.31,3.58.59-.12a12.55,12.55,0,0,0,.24-2.57,14.52,14.52,0,0,0-.76-2.6l.29-.3,1.17.91.8.64c.22-.31.59-.62.61-.94a18.06,18.06,0,0,0-.14-2.32,2.54,2.54,0,0,1,0-.78.6.6,0,0,1,.5-.08c1.2,1.2,2.37,1,3.52-.28,0,1.23-.57,1.88-2,2.05-.92.12-1.29.34-1.27,1.37a2.2,2.2,0,0,1-1.5,2.35c-.27.09-.52.62-.56,1-.12,1,.18,2.24-1,2.6s-1.77-.79-2.37-1.62-.76-1.62-2-1.32c-.18,0-.63-.48-.74-.81C210.91,384.39,210.6,382.72,211.17,381.44Z" transform="translate(-29.71 -13.44)"/><path class="cls-1" d="M199.55,399.12a20.9,20.9,0,0,0,2.09-2.44c1-1.69,1.89-3.48,2.84-5.23a5.34,5.34,0,0,1,.52-.68,2.78,2.78,0,0,1,.7.56c.44.64.82,1.33,1.36,2.21l1.14-2a2.66,2.66,0,0,1-.89,2.81c-.7.33-1.22,0-2.44-1.72-1.26,1.89-2.49,3.77-3.77,5.61a6.32,6.32,0,0,1-1.43,1.53c-.3.22-.85.08-1.29.11a3.89,3.89,0,0,1,0-1.44,16.41,16.41,0,0,1,1.26-2.13l-.92-.24a8.48,8.48,0,0,1-6.33-5.14,1.46,1.46,0,0,1-.19-.69,4.46,4.46,0,0,1,.24-.92,3.94,3.94,0,0,1,.7.65,35.25,35.25,0,0,0,2.65,3.58c.82.85,2,.53,3.46.2l-2-1.61c-.93-.75-1.88-1.47-2.77-2.25-.21-.18-.22-.58-.32-.88.31,0,.69,0,.91.12,1.41,1,2.82,2.09,4.14,3.24a7,7,0,0,1,1.7,2.09c.59,1.21-.35,2.19-.82,3.21a7.78,7.78,0,0,1-.84,1.22Z" transform="translate(-29.71 -13.44)"/><path class="cls-1" d="M104.27,338.92a10,10,0,0,1-1,2.29,6.3,6.3,0,0,0-1.67,5.18c.1.59.3,1.15.42,1.74a15.29,15.29,0,0,0,.27,1.67,24.39,24.39,0,0,0,1,2.61,5.81,5.81,0,0,0,.73,1l-.19.31c-.35-.13-.81-.17-1-.41a13.17,13.17,0,0,1-2.79-6.63c0-.24-.11-.59,0-.7,1-.9.61-2.27,1.18-3.27a1.77,1.77,0,0,0-.16-2c-1.36-2.61-2.69-5.24-3.93-7.91a7.07,7.07,0,0,1-.22-5.46c.67-2,1.06-4.08,1.71-6.09a10.52,10.52,0,0,1,1.62-2.92c.75,1.57,0,2.85-.69,4a9.14,9.14,0,0,0-1.72,4.23c-.1,1.1-.36,2.19-.42,3.29-.14,2.35,1.18,4.27,2,6.34.16.44.37.87.73,1.68.18-.51.31-.86.53-1.47,1,1.74.32,3.7,2.11,4.75l1.56-2.22Z" transform="translate(-29.71 -13.44)"/><path class="cls-1" d="M114.1,375.49a6.08,6.08,0,0,1-1.67-.91c-1.2-1.31-2.27-2.74-3.41-4.1a10.41,10.41,0,0,0-1.61-1.64,4.82,4.82,0,0,1-2.26-4.1,23.27,23.27,0,0,1,.79-4.43c.08-.34.54-.59,1-.78-1,3-1.75,6,.93,8.7,0-1.23,0-2.23,0-3.24a33.29,33.29,0,0,0-.37-6.26c-.38-1.62-1.54-3.07-2.4-4.57-.65-1.13-1.39-2.21-2-3.34-.1-.17,0-.48.08-.72.25.11.62.16.74.35.37.61.57,1.33,1,1.9a23.62,23.62,0,0,0,1.81,1.94,6.75,6.75,0,0,1,1.81,4.44c0,1.9-.19,3.81-.13,5.72a11.31,11.31,0,0,0,2.7,7.34c.82.92,1.73,1.75,2.59,2.63.23.24.42.52.64.78Z" transform="translate(-29.71 -13.44)"/><path class="cls-1" d="M130.34,388.34c-2.85,1.11-6.5-1.11-7-4.16,0-.27,0-.56-.09-.83a19.59,19.59,0,0,0-3.37-7.38c.91-.41,1.69.1,2.3,1.59.4,1,.71,2,1.11,3.14l1.53-1.08a1.25,1.25,0,0,1,2,.34c.56.9,1,1.9,1.47,2.84s1.05,1.75,1.58,2.63l-.21.22a9.57,9.57,0,0,1-1.33-1.29c-.65-.95-1.2-2-1.79-3-1-1.58-1.09-1.61-2.58-.52a17.08,17.08,0,0,0,.73,2.94,6.66,6.66,0,0,0,2.28,2.93c1.43,1.05,2.23,1.9,3.6.24,0,0,.49.26.56.46a12.65,12.65,0,0,1,.61,2.05,3.89,3.89,0,0,0,3.32,3.3c.1,0,.18.12.29.18C134,394.15,132.58,392.88,130.34,388.34Z" transform="translate(-29.71 -13.44)"/><path class="cls-1" d="M159,399.06a3.31,3.31,0,0,1-.31.77,4.92,4.92,0,0,1-7.58-.75c-.35-.57-.67-.92-1.34-.92a7.35,7.35,0,0,1-5.71-3c-2,1.88-3.45,2.06-5,.56a6.43,6.43,0,0,1-1.49-1.85c-.77-1.69-1.41-3.45-2-5.2-.12-.33.08-.78.13-1.17h.49c.2.7.41,1.41.62,2.11.65,2.24,1.47,4.37,3.44,5.84a2,2,0,0,0,2.41.32,1.9,1.9,0,0,0,.81-2.29,1.59,1.59,0,0,1,.27-1.09c1.83,3,3.85,5.5,7.85,5C153,400.12,155.09,401.45,159,399.06Z" transform="translate(-29.71 -13.44)"/><path class="cls-1" d="M228.82,380.65c1.28-1.08,1.81-2.83,1.08-4-.48-.74-.94-1.77-2-1.29a21.56,21.56,0,0,1,.33,2.84,1.32,1.32,0,0,1-.76,1c-.35.06-.8-.39-1.2-.62l.1-.3,1.14-.28-1.34-3c-3,1.78-5.69.78-5.85-2.4l1.11.93a9.3,9.3,0,0,0,1.93,1.5c1.39.6,2.4-.29,2.18-1.78-.07-.45-.08-.91-.12-1.36l.38-.21a5.75,5.75,0,0,1,.78,1c.22.46.25,1,.49,1.46a1,1,0,0,0,.8.39c1.52-.25,1.51-.27,3,.82.4-1.07.76-2.11,1.2-3.11.11-.26.5-.41.77-.61.07.34.29.74.18,1-.54,1.31-1.25,2.56-1.73,3.89-.27.76-.14,1.66-.34,2.47a4.09,4.09,0,0,1-.83,1.65c-.21.26-.76.23-1.15.32C228.87,380.94,228.85,380.8,228.82,380.65Z" transform="translate(-29.71 -13.44)"/><path class="cls-1" d="M170.67,366.09a9.12,9.12,0,0,0,.72,1c.34.34.71.65,1.07,1,.33-.48.65-.95,1.09-1.61-2.11-.23-2.07-1.67-2.39-3,1.62-.47,1.07,1.31,2,1.7a5.57,5.57,0,0,0,1.33-3.22,23.2,23.2,0,0,0-.28-3.52l.31-.1,2.27,3.85c1.76-1.76,1.2-3.77,1.24-5.67,1.54,0,1.85,2.9,4.1,1.55-.11.41-.25,1.2-.34,1.19-.95-.06-1.9-.24-3-.41a4.86,4.86,0,0,0-.14.66,8.59,8.59,0,0,1-.26,1.76c-.7,1.91-1.44,2.33-2.83,1-.13-.13-.28-.25-.43-.38l-1.4,5.06a8.68,8.68,0,0,1-.38,1.12c-.36.78-.83,1.44-1.83,1A2.15,2.15,0,0,1,170.67,366.09Z" transform="translate(-29.71 -13.44)"/><path class="cls-1" d="M199.85,316c.32-1.82.64-3.64,1-5.42-2.54-.94-2.59-.94-2.56-3.51,0-1.21-.15-2.1-1.4-2.72a4.62,4.62,0,0,1-2.34-3.25,6.09,6.09,0,0,1,1.37.65,25.73,25.73,0,0,1,2.31,2.36,3.41,3.41,0,0,1,.67,1.47,17.08,17.08,0,0,1,.16,2.27,1.56,1.56,0,0,0,1.48,1.56,1,1,0,0,1,1,1.29c-.12.93-.26,1.86-.39,2.79a13.27,13.27,0,0,1,2.26-.5c1.34,0,1.89.71,1.51,2s-.9,2.83-1.36,4.25l-.41-.05a6.11,6.11,0,0,1,.08-1.21c.25-1,.64-1.89.81-2.86.07-.42-.13-1.18-.42-1.31a1.89,1.89,0,0,0-1.53.17,5.78,5.78,0,0,0-1.25,1.39,7.09,7.09,0,0,0-.45.75Z" transform="translate(-29.71 -13.44)"/><path class="cls-1" d="M167,384.75c1.46-.6,1.84.61,2.42,1.3s.73,1.05,1.63,1.07a1.55,1.55,0,0,1,1.38,1.81,11.47,11.47,0,0,1-.65,2.75c-.09.27-.61.39-1.05.45.67-1.37,1-2.6,0-4.17-.26,1.18,1.14,2.51-.82,3,.2-2.42-.95-4.15-2.87-5.64-.24,1-.29,2-1.72,2,1.29-2.51.48-4.53-1.23-6.31.53-.7.9-.78,1.3-.14a21.47,21.47,0,0,1,1.31,2.63A7.38,7.38,0,0,1,167,384.75Z" transform="translate(-29.71 -13.44)"/><path class="cls-1" d="M104.27,339c.71-.43.72-1,.35-1.66a8.49,8.49,0,0,1-.64-6.81c.16-.51.76-.88,1.29-1.2a7.72,7.72,0,0,0,1.71,9.84l-1.52-.37a9.72,9.72,0,0,1,.2,5.84,29.38,29.38,0,0,0-.45,5.5h-.53c-.13-1.22-.26-2.45-.4-3.74l-1.16.15a4.37,4.37,0,0,1,.44-1.18,6.44,6.44,0,0,0,1.26-5.38,3.91,3.91,0,0,0-.55-1Z" transform="translate(-29.71 -13.44)"/><path class="cls-1" d="M225.72,293.05A2.51,2.51,0,0,1,222,291.3a9.61,9.61,0,0,1,0-2.73c.05-.36.56-.66.83-1s.89-.85.9-1.29a2,2,0,0,0-.68-1.6,7.48,7.48,0,0,0-2.67-1c-.83-.13-.95-.51-1-1.19,0-1.1-.11-2.19-.14-3.29,0-.19.19-.53.32-.54s.64.11.67.25a5.9,5.9,0,0,1,.26,2.18c-.27,1.35.31,1.92,1.5,2.15a7.58,7.58,0,0,1,.94.23,2.19,2.19,0,0,1,1.54,3c-.3,1-.72,1.94-1,2.92-.68,2.13-.28,2.86,1.86,3.48A4.1,4.1,0,0,1,225.72,293.05Z" transform="translate(-29.71 -13.44)"/><path class="cls-1" d="M131.32,332.89l.79-.74.33.24-1,1.36c-.38-.33-1-.6-1.11-1a26.39,26.39,0,0,1-.66-4.23c-.11-1.56,0-3.14-.2-4.74-1.9,2.61-3.37,5.3-2.29,8.71l-.39.13c-.19-.38-.52-.76-.53-1.14a14.7,14.7,0,0,1,.24-3.45,22.13,22.13,0,0,1,1.61-4.45,2.49,2.49,0,0,1,1.8-1.07c.59-.05,1.23.49,2,.87C130.23,324.59,130,331.06,131.32,332.89Z" transform="translate(-29.71 -13.44)"/><path class="cls-1" d="M158.69,282.33l-5.12-3.89c-.33.9-.61,1.84-1,2.72a17.41,17.41,0,0,1-1.31,2.13c-.45.7-1.18,1.19-1.91.76a2.89,2.89,0,0,1-1.37-1.76A24.64,24.64,0,0,1,148,278c0-.19.23-.37.36-.55.21.15.53.26.6.45A2.69,2.69,0,0,1,149,279a9.14,9.14,0,0,1-.22,1.29c-.3,1.37.06,2.78.92,2.93,1.21.21,1.76-.84,2.19-1.66.84-1.61,1.69-3.29.68-5.19a.66.66,0,0,1,.15-.61,1,1,0,0,1,.73.09c.18.11.28.37.4.57a13.08,13.08,0,0,0,4.24,4.45,5.93,5.93,0,0,1,1,1.07A5.66,5.66,0,0,1,158.69,282.33Z" transform="translate(-29.71 -13.44)"/><path class="cls-1" d="M246.22,316.88a6.84,6.84,0,0,1-4.81,2.1c.44,3.48,2.91,6.78,5,6.65.19.85-.19,1.38-1,1a6.83,6.83,0,0,1-2.75-2.12,48.7,48.7,0,0,1-2.34-5.32c-.13-.3-.5-.5-.73-.77-.73-.87-1.46-1.73-2.13-2.63-.09-.12.13-.47.21-.71.25.11.58.15.74.34.54.61.9,1.46,1.55,1.9,1.75,1.19,3.55.78,5.26-.25l.76-.46Z" transform="translate(-29.71 -13.44)"/><path class="cls-1" d="M216.46,314.93c.21-1.53.4-3.06.65-4.58,0-.08.39-.11.56-.15,0,1.49,0,2.91,0,4.32,0,1.09-.13,2.17,1.11,2.74-1.28.94-1.34,1.94-.37,3.2.17.22.09.65.12,1-.33-.12-.74-.15-1-.37a1.76,1.76,0,0,1-.46-1.08c0-1.93-1-3.5-1.77-5.19a16.48,16.48,0,0,1-1-4.16c0-.34.35-.75.54-1.13a3.57,3.57,0,0,1,.52,1c.15.94.14,1.9.29,2.84a11.35,11.35,0,0,0,.54,1.65Z" transform="translate(-29.71 -13.44)"/><path class="cls-1" d="M199.89,268.52c1.45-2.4,2.07-4.83.44-7.48-1.45,1.82-1,5-4.25,5.48,0-.36,0-.59.07-.65,2.13-1.6,2.63-4.06,3.41-6.38a6.13,6.13,0,0,1,.67-1.16c.31.31.77.56.92.94,1,2.45,1.63,4.93.41,7.5-.26.54-.48,1.09-.79,1.6-.11.18-.43.23-.65.35Z" transform="translate(-29.71 -13.44)"/><path class="cls-1" d="M220.93,368.5c-.32.61-.51,1-.75,1.44a1.64,1.64,0,0,1-2.54.51c-1.6-1.18-2.68-5.55-1.81-7.3,0-.09.18-.13.47-.35.12.57.23,1,.32,1.48a38.46,38.46,0,0,0,.85,4.3,2.37,2.37,0,0,0,1.46,1.2c.25.07.74-.72,1.16-1.07,1.47-1.28.37-3,.71-4.41a5.81,5.81,0,0,1,.32-.88c.19.28.5.54.54.84.16,1.18.2,2.38.36,3.56a11.47,11.47,0,0,0,.52,1.41,5.36,5.36,0,0,1,.1,1c-.34-.08-.79,0-1-.25A6.67,6.67,0,0,1,220.93,368.5Z" transform="translate(-29.71 -13.44)"/><path class="cls-1" d="M131.5,366.33a17.34,17.34,0,0,0,1.89,3.37c.79.86,2,1.35,2.94,2.31l-1.66-.26a4.58,4.58,0,0,0,4.67,3.17l.09.32a3.16,3.16,0,0,1-1.1.29,5.86,5.86,0,0,1-4.11-2.42c-1.72-2.58-3.3-5.24-4.89-7.89-.17-.28,0-.76,0-1.15a4.52,4.52,0,0,1,.8.84C130.51,365.61,130.49,366.7,131.5,366.33Z" transform="translate(-29.71 -13.44)"/><path class="cls-1" d="M135.6,270.53c2.41,3.43,2.41,3.43,3.13,3-.52-1.48-1-2.89-1.48-4.32,0-.13.33-.4.53-.63.52,1.15,1,2.14,1.4,3.13l.33-.08c0-.65.08-1.31.13-2l.38-.16c.8,1.09,1.61,2.17,2.36,3.29.07.1-.15.55-.33.64a.79.79,0,0,1-.71-.16,11.13,11.13,0,0,1-.93-1.22c-.4,1.49-1.07,2.64-2.47,2.52-1.69-.15-2.34-1.63-2.85-3a2.94,2.94,0,0,1,.08-1.09Z" transform="translate(-29.71 -13.44)"/><path class="cls-1" d="M219.3,290.93c-.72-2.68-3.38-2.2-4.85-3.45a3.63,3.63,0,0,0-.37,4.73,2.54,2.54,0,0,1,.26.92c-.32-.13-.76-.18-1-.42a4.62,4.62,0,0,1,0-5.46,37.71,37.71,0,0,1-2.71-3,6.24,6.24,0,0,1-.71-2.12c-.05-.16.15-.38.23-.58.18.12.48.2.51.35.8,3.36,3.51,4.63,6.29,5.85a8.35,8.35,0,0,1,2,1.25A1.26,1.26,0,0,1,219.3,290.93Z" transform="translate(-29.71 -13.44)"/><path class="cls-1" d="M134.44,334.14c1.53-.87,1.73-2.21,1.66-3.66a9.78,9.78,0,0,0-1.74-4.64,6.75,6.75,0,0,1-.64-1,3.31,3.31,0,0,1-.07-.95c.3.1.72.11.87.32,1.34,2,2.56,4,2.35,6.47a5.85,5.85,0,0,1-2.06,4.23c-1.21,1.06-1.79,2.83-2.66,4.28a1.56,1.56,0,0,1-.89.75c.49-1.06,1-2.12,1.46-3.17a4.63,4.63,0,0,0,.21-3.82c-.09-.26.09-.62.14-.94.26.2.6.34.75.6A12.38,12.38,0,0,1,134.44,334.14Z" transform="translate(-29.71 -13.44)"/><path class="cls-1" d="M222.63,351.34c.26-2-2.36-4.67-4.27-4.54a1.41,1.41,0,0,0-.46.11c-1.3.6-1.7,3.86-.59,4.78.16.13.4.24.44.4a2.81,2.81,0,0,1,0,.82,2.19,2.19,0,0,1-.69-.18c-.19-.11-.29-.35-.55-.69-.15.49-.25.83-.39,1.31-.13-.27-.3-.46-.29-.64,0-1-.64-1.35-1.45-1.59a8,8,0,0,1-1.44-.54.72.72,0,0,1-.2-.69c.06-.15.45-.27.66-.22.79.16,1.73.76,2.27.49s.49-1.4.72-2.15c.08-.27.19-.53.25-.8.45-1.89,1.66-1.82,2.8-1.26a13.17,13.17,0,0,1,3.2,2.24C223.75,349.24,223.7,350.6,222.63,351.34Z" transform="translate(-29.71 -13.44)"/><path class="cls-1" d="M154,307.31a2.57,2.57,0,0,1,3-.46,14.16,14.16,0,0,1,2.1,1.12c1.59.88,3.17,1.79,4.78,2.66a2.08,2.08,0,0,1,1.07,2.81c-.36.93-.54,2.17-2.1,2.45.36-1.6,2.7-3.05.25-4.61a16.71,16.71,0,0,1-1,1.77c-.12.17-.53.11-1,.19a3.2,3.2,0,0,1,.37-.71c.87-.74.59-1.49-.16-2-1.55-1-3.17-1.91-4.8-2.77a4.71,4.71,0,0,0-1.49-.21C154.77,307.53,154.5,307.44,154,307.31Z" transform="translate(-29.71 -13.44)"/><path class="cls-1" d="M140,314.74a17,17,0,0,1-2.68,1.31,2.08,2.08,0,0,1-1.62-.46,4,4,0,0,1-.87-4.57,3,3,0,0,0,0-1.27,27.05,27.05,0,0,1-.26-2.83c0-.42.44-.84.92-1.1.06,1.39.13,2.77.2,4.13l1.3.1a9,9,0,0,0-.52,1.2,12.45,12.45,0,0,0,1.8.86c-.3.93-.85,1-2.53.05a2.63,2.63,0,0,0,.92,2.75c.38.31,1.29,0,2-.09a8.53,8.53,0,0,0,1.27-.41Z" transform="translate(-29.71 -13.44)"/><path class="cls-1" d="M203.23,298.61l2.51,5.23c2.15-1.78,1.91-4.1,2.28-6.19l.5,0,1.76,9.09c-1.26-.35-1.18-1.57-1.48-2.5s-.5-2-.79-3.15c-.46,1-.8,1.86-1.21,2.66s-1.24,1.05-1.76.21a40.12,40.12,0,0,1-2.22-4.33C202.74,299.5,203,299.19,203.23,298.61Z" transform="translate(-29.71 -13.44)"/><path class="cls-1" d="M216,282c-.28-1.88.77-3.89-.32-5.74-2,.5-1.44,3.15-3.37,4a5.34,5.34,0,0,1-.1-1.39c.28-1.36.61-2.71,1-4.05.05-.19.38-.3.57-.45.14.21.41.43.4.63a6,6,0,0,0-.11,1.74c.35-.4.7-.81,1.05-1.2.78-.85,1.6-.71,1.89.41a8.16,8.16,0,0,1,.23,2.36,17.94,17.94,0,0,1-.42,2.82,4,4,0,0,1-.49,1Z" transform="translate(-29.71 -13.44)"/><path class="cls-1" d="M113.39,357.17a5.79,5.79,0,0,1-2.2-4,15,15,0,0,1,0-4,11.61,11.61,0,0,1,1-2.29,28.61,28.61,0,0,0,1.06-3.49c0-.14-.63-.45-1.19-.84.51-.16,1.13-.57,1.45-.4a1.52,1.52,0,0,1,.58,1.37,23.19,23.19,0,0,1-1.27,4.1c-1.23,2.9-.74,5.67.44,8.43.09.21.22.41.29.63S113.48,356.92,113.39,357.17Z" transform="translate(-29.71 -13.44)"/><path class="cls-1" d="M159.52,295.63a29.61,29.61,0,0,1-1.72,3.8c-.21.34-1.2.3-1.82.25-.38,0-.73-.41-1.06-.61-.83,1.26-1.6,2.5-2.44,3.68-.52.73-1.27,1.56-2.16,1a5.58,5.58,0,0,1-1.44-2.17c-.09-.19.15-.56.23-.84.29.16.68.25.84.49,1.19,1.89,1.22,1.92,2.65.17.89-1.11,1.84-2.22,1.62-3.83,0-.2.22-.45.47-.89.63.7,1.11,1.31,1.67,1.84s1.06.43,1.48-.23c.56-.89,1.15-1.75,1.72-2.63Z" transform="translate(-29.71 -13.44)"/><path class="cls-1" d="M186.1,399.61a2.32,2.32,0,0,1-.65,2.88,2,2,0,0,1-1.7.31,7,7,0,0,0-5.54.38c-1,.57-1.82.14-2-1-.25-1.68-.38-3.38-.5-5.08,0-.32.28-.66.44-1l.49,0c0,1.06,0,2.12.09,3.17,0,.84.12,1.67.24,2.49s.62.91,1.22.53a5.47,5.47,0,0,1,5-.43c1.53.51,2,.24,2.48-1.27C185.81,400.35,185.92,400.09,186.1,399.61Z" transform="translate(-29.71 -13.44)"/><path class="cls-1" d="M216.94,297.19c.81-.37,1.59-.79,2.43-1.09a5.45,5.45,0,0,1,1.41-.14,4,4,0,0,1,.08,1.45c-.42,1.29-1,2.52-1.45,3.79-.61,1.68-.43,1.88,1.28,1.56.07,0,.14.07.29.14a1.36,1.36,0,0,1-1.66,1.06,1.21,1.21,0,0,1-1.1-1.52c.25-1.16.64-2.28,1-3.41.21-.66.48-1.31.84-2.29a23.34,23.34,0,0,1-2.46,1.07,1.6,1.6,0,0,1-1.3-.11,1.38,1.38,0,0,1-.29-1.26c.48-1.05,1.13-2,1.71-3l.33.17c-.49,1.1-1,2.2-1.48,3.29Z" transform="translate(-29.71 -13.44)"/><path class="cls-1" d="M144.09,370.67c-.48-.17-1-.32-1.44-.52-.67-.3-1.21-.78-2.07-.18-.3.21-1.44-.21-1.72-.65a26.4,26.4,0,0,1-2.08-4.11,6.48,6.48,0,0,1-.31-2.12c0-.79,0-1.65,1.33-1.5a4.48,4.48,0,0,0,1,4.89,31.16,31.16,0,0,0,4.23,3c.42.28.87.51,1.31.76Z" transform="translate(-29.71 -13.44)"/><path class="cls-1" d="M230,345.34c-1.44-1.35-3.2-2.42-3.94-4.51a3.75,3.75,0,0,1,.74.4c1.29,1.12,2.61,2.22,3.82,3.42a3.67,3.67,0,0,1,.71,1.66,11.17,11.17,0,0,0,.28,2.14c.8,1.7,1.76,3.33,2.62,4.9C232.34,353.24,229.25,347.66,230,345.34Z" transform="translate(-29.71 -13.44)"/><path class="cls-1" d="M226.66,324.43c.19-.26.39-.52.58-.79a8.9,8.9,0,0,0,1.79-6.42c-.17-1.14-1.27-2.14-1.9-3.23a4.82,4.82,0,0,1-.3-1.16,3.85,3.85,0,0,1,1.12.59,14.1,14.1,0,0,1,2.1,2.55,4.45,4.45,0,0,1,.34,4.23,26.87,26.87,0,0,1-2.23,3.5,6.63,6.63,0,0,1-1.17,1.06Z" transform="translate(-29.71 -13.44)"/><path class="cls-1" d="M149.93,362.63c-.16.4-.26,1.08-.49,1.13a2,2,0,0,1-1.54-.26,13.88,13.88,0,0,1-1.29-1.83,2.32,2.32,0,0,0-.87-.53c-.84-.37-1.94-.5-2.46-1.12a10.43,10.43,0,0,1-1.38-3.13c-.07-.18.28-.51.43-.78.22.22.59.41.63.66.2,1.28.43,2.54,1.61,3.31a1.26,1.26,0,0,0,1.05.15c.21-.13.28-.66.25-1-.06-.59-.34-1.17-.34-1.75,0-.32.4-.63.62-.94a8.05,8.05,0,0,1,.5.91c.21.55.39,1.13.55,1.7.06.25,0,.53.06.78a11.82,11.82,0,0,0,.74,2.54c.36.71,1,1,1.6-.1Z" transform="translate(-29.71 -13.44)"/><path class="cls-1" d="M237.11,316.24a13.87,13.87,0,0,1,1.61,6.27l-.33.13c-.45-1.11-.89-2.22-1.27-3.15a27.89,27.89,0,0,1-2.61,3.6,2.3,2.3,0,0,1-3.67-.5c-.14-.3,0-.72,0-1.09.31.12.71.16.92.38a2,2,0,0,0,3.32-.17c.94-1.37,1.89-2.78,1.26-4.63-.08-.23.24-.61.37-.92Z" transform="translate(-29.71 -13.44)"/><path class="cls-1" d="M152.39,350.61c1.29,2.07,2.93,4,2.39,6.76l-1.65-4.1-.35.13c-.12.89-.19,1.8-.39,2.67s-.82,1.11-1.52.54a9.58,9.58,0,0,1-3.06-5.29l.32-.26a3.73,3.73,0,0,1,.72.77c.47.88.83,1.82,1.34,2.67a12.18,12.18,0,0,0,1.44,1.62C152.5,354.18,152.35,352.41,152.39,350.61Z" transform="translate(-29.71 -13.44)"/><path class="cls-1" d="M241.09,329c-.41,1.39-.71,1.49-2.11.66-.59,1.42-1.34,2.76-.69,4.37a1.32,1.32,0,0,1-.09.89.63.63,0,0,1-.6.14,1.17,1.17,0,0,1-.46-.75,25.09,25.09,0,0,1,.23-3.68c.08-.54.6-1,1-1.71-.42-1.09-1-2.51-1.5-3.95-.09-.26.1-.62.16-.93.29.19.73.3.84.56.47,1.18.83,2.39,1.25,3.59C239.48,329.08,240,329.66,241.09,329Z" transform="translate(-29.71 -13.44)"/><path class="cls-1" d="M232.26,304.14a8.57,8.57,0,0,1-1.29,1.32c-.52.35-1.23.85-1.7.72a2,2,0,0,1-1.05-1.5,40.22,40.22,0,0,1,.22-4.42c1.16.45,1,1.11.86,1.71-.29,1.89-.22,2.32.6,3.31.51-.48,1-1,1.54-1.44,1-.86,1.7-.67,2.07.61.25.84.45,1.69.62,2.55a3.9,3.9,0,0,1,0,1l-.36.07C233.27,306.82,232.81,305.61,232.26,304.14Z" transform="translate(-29.71 -13.44)"/><path class="cls-1" d="M202.86,339.67c-.72-2.46-2.68-2.48-4.65-2.48h-2.37c.38-1.32,2-1.35,6-.23a9.69,9.69,0,0,1,2.06-2.45c.51-.3,1.58.17,2.33.47s2,.51,2,1.68c-1.24-.41-2.35-.84-3.49-1.1-.46-.11-1.33,0-1.45.29A5.68,5.68,0,0,0,203,338a7.61,7.61,0,0,0,.25,1.49Z" transform="translate(-29.71 -13.44)"/><path class="cls-1" d="M148.49,378.21c2.49-1.88,2.88-1.88,4.85-.19,1.21,1,1.79,3.53,1,4.72-.15.24-.61.29-1.16.53,1-2.88.62-4.17-1.47-5.45-1.22-.75-1.65-.63-2.37.66-.49.88-1.15,1-1.56.15-.68-1.43-1.2-2.94-1.76-4.43-.06-.17.09-.41.44-.7Z" transform="translate(-29.71 -13.44)"/><path class="cls-1" d="M232.52,297a8.22,8.22,0,0,0-1.17-5.71c-.36.43-.6.91-1,1.1s-1,.16-1.19-.06a33.31,33.31,0,0,1-2-3.08c-.06-.1.09-.47.18-.48.24,0,.62,0,.73.11A10,10,0,0,1,229.4,291c.35.83.74.8,1.34.35a3.9,3.9,0,0,1,.86-.62,1.09,1.09,0,0,1,.87,0c1.07.79,1.37,5,.47,6.06A2.36,2.36,0,0,1,232.52,297Z" transform="translate(-29.71 -13.44)"/><path class="cls-1" d="M114.31,310.16a20.12,20.12,0,0,1,.17,2.33c-.08,2.37,1.1,4.37,2,6.4.68,1.51,1.67,1.4,2.49-.06.16-.28.37-.54.56-.81l.29.16a14.73,14.73,0,0,1-.82,1.75c-.66,1.06-1.66,1.23-2.43.29a13.61,13.61,0,0,1-3.08-9.49c0-.24.26-.47.39-.7Z" transform="translate(-29.71 -13.44)"/><path class="cls-1" d="M195.35,313c-.7.51-1,.42-1.29-.61s-.33-2-.62-2.91-.79-1.74-2-1.52c-.6.1-1-.15-.83-.91s.51-1.87-1-2.05c-.16,0-.38-.53-.36-.79s.46-.37.72-.38c1.06,0,1.58.54,1.6,1.62,0,.36,0,.72,0,1.18,1.66,0,2.22,1.15,2.6,2.54S194.94,311.64,195.35,313Z" transform="translate(-29.71 -13.44)"/><path class="cls-1" d="M144.52,390.28c.07.37.13.73.19,1.09l-.29.1a10.87,10.87,0,0,1-1.69-4.22c-1.18.64-1.71.12-1.72-1.05a47.2,47.2,0,0,1,.1-4.76c.09-1.08.49-1.28,1.45-1.13-1,1.81-1.12,5.65,0,6.51a14.8,14.8,0,0,1-.14-1.62,2.77,2.77,0,0,1,.28-.77c.18.23.46.43.51.68.21,1.17.29,2.37.54,3.54a8.39,8.39,0,0,0,.78,1.67Z" transform="translate(-29.71 -13.44)"/><path class="cls-1" d="M210.51,322.23c1.45-.16,1.75.8,2.29,1.47a20.57,20.57,0,0,0,2,2.26,4.84,4.84,0,0,0,1.65.53,12,12,0,0,1-.22-1.63c0-.22.22-.44.34-.67.2.14.53.25.59.43a1.83,1.83,0,0,0,2.21,1.46c-.06.87-.5,1.22-1.18,1a2.87,2.87,0,0,0-2.19,0,1.8,1.8,0,0,1-1.29-.07C212.76,326,211.7,324.2,210.51,322.23Z" transform="translate(-29.71 -13.44)"/><path class="cls-1" d="M119.83,308.69c.36,1.45.7,2.91,1.08,4.35a6.13,6.13,0,0,0,.52,1.21c1.22,2.37,1.4,2.4,3.23.47l.27.22c-.62.67-1.13,1.58-1.9,1.95s-1.78-.32-2.11-1.13a53.79,53.79,0,0,1-1.84-5.64c-.12-.45.3-1,.46-1.56Z" transform="translate(-29.71 -13.44)"/><path class="cls-1" d="M172.48,355l-.81-1.93c-1.11,1.23-2.12,2.36-3.15,3.48a3.94,3.94,0,0,1-.48-.31,8.83,8.83,0,0,0,2.64-5.88c0-.32.3-.63.46-.94a3.91,3.91,0,0,1,.7.9c.38,1,.71,2.12,1,3.19a5.86,5.86,0,0,1,0,1.39Z" transform="translate(-29.71 -13.44)"/><path class="cls-1" d="M150.76,332.93l.73.11.09.27c-.23.13-.46.37-.7.38-1.23,0-1.55.5-1.12,1.72a8.54,8.54,0,0,1,.27.9c0,.09-.07.22-.25.71-.47-.61-1.13-1.09-1.09-1.48.23-2-.57-3.63-1.23-5.36-.11-.31.11-.74.18-1.12.27.28.71.51.8.84.28.94.26,2,1.73,1.93C150.32,331.82,150.52,332.48,150.76,332.93Z" transform="translate(-29.71 -13.44)"/><path class="cls-1" d="M141,278.82c0,.85-.06,1.7,0,2.54a15.19,15.19,0,0,0,.5,3.17c.58,1.88,1.78,2.25,3.45,1.19a2.3,2.3,0,0,1,1-.41,15.34,15.34,0,0,1-1.79,1.45,2,2,0,0,1-2.88-.64c-1.32-2-1.31-4.36-1.16-6.67,0-.26.36-.5.55-.74Z" transform="translate(-29.71 -13.44)"/><path class="cls-1" d="M145.57,328.06a1.81,1.81,0,0,1-2.09-1.69,60.6,60.6,0,0,1-.41-6.48,1.53,1.53,0,0,1,.43-1,2.07,2.07,0,0,1,1.07-.74c.2,0,.49.57.63.75-1.69,1.32-1.41,3.12-1.44,4.68S144,326.94,145.57,328.06Z" transform="translate(-29.71 -13.44)"/><path class="cls-1" d="M135.85,301.14c-.62,2-1.78,2.83-3.13,2.18a2,2,0,0,1-1.05-1.18c-.36-2.06-.61-4.15-.81-6.24,0-.39.35-.81.54-1.22l.38.13c0,1.49-.05,3,0,4.47a7.74,7.74,0,0,0,.5,2.43,1.47,1.47,0,0,0,2.46.45C135.11,301.85,135.44,301.52,135.85,301.14Z" transform="translate(-29.71 -13.44)"/><path class="cls-1" d="M188.11,385.75c-.93,2.48-.14,4.55,1,6.49.67,1.14,1.19,1.08,2.17.13a3.89,3.89,0,0,1,.61-.37c-.42,1.79-1.88,2.33-3.05,1.21-1.84-1.78-2.2-4.09-2.13-6.49C186.74,386,187.13,385.44,188.11,385.75Z" transform="translate(-29.71 -13.44)"/><path class="cls-1" d="M98.66,326.43c1.38.68,2.52.16,3.2-1.26.92-1.92,1.74-3.85,1.43-6.06,0-.24.23-.52.36-.78a3,3,0,0,1,.61.62c.74,1.37.1,2.7-.41,3.89a18.1,18.1,0,0,1-2.39,3.78C100.68,327.64,99.53,327.57,98.66,326.43Z" transform="translate(-29.71 -13.44)"/><path class="cls-1" d="M147.51,368c1.42.08,1.4.11,1.12,1.45-.23,1.05-.27,2.13-.48,3.18-.07.34-.43.62-.66.94-.07-.34-.29-.71-.21-1,.6-2.14-.48-3.94-1.1-5.84a4.64,4.64,0,0,1-.36-1.13c0-.24.21-.5.33-.75.22.17.56.31.64.53C147.07,366.29,147.28,367.18,147.51,368Z" transform="translate(-29.71 -13.44)"/><path class="cls-1" d="M131.94,358.31a3.16,3.16,0,0,1-1.09.11,3.8,3.8,0,0,1-2.71-2.49c-.74-1.93-1.33-3.92-1.91-5.9-.08-.28.28-.69.44-1a3,3,0,0,1,.59.82c.57,1.94,1,3.91,1.64,5.83a2.92,2.92,0,0,0,3,2.24C132,358,131.94,358.17,131.94,358.31Z" transform="translate(-29.71 -13.44)"/><path class="cls-1" d="M171.89,329.77a32,32,0,0,1,1.7,3.8c.21.7-.15,1.55-.07,2.31.15,1.39.44,2.76.67,4.14l-.34.12c-.33-1.1-.71-2.19-1-3.3s-.46-2.31-.7-3.47S171.18,331.2,171.89,329.77Z" transform="translate(-29.71 -13.44)"/><path class="cls-1" d="M225.5,305.74l1.33-1.79a1.81,1.81,0,0,1-1.09,2.21c-1,.39-1.64-.39-1.81-1.23-.35-1.74-.54-3.51-.74-5.28,0-.21.3-.47.46-.7.18.23.48.44.5.69.13,1.1.08,2.23.3,3.32A18.78,18.78,0,0,0,225.5,305.74Z" transform="translate(-29.71 -13.44)"/><path class="cls-1" d="M138.54,292.8a9.05,9.05,0,0,1-.64,1.88c-.27.46-.82,1.13-1.19,1.09a2.17,2.17,0,0,1-1.58-1,14.81,14.81,0,0,1-.71-3.34,9.49,9.49,0,0,1,0-1.6l.55-.11c.2.62.45,1.22.6,1.85.21.89.26,1.82.54,2.68s.85.8,1.28.1c.33-.53.58-1.11.86-1.66Z" transform="translate(-29.71 -13.44)"/><path class="cls-1" d="M112,323A17.7,17.7,0,0,1,110.7,320c-.49-2-.78-4-1.13-6a1.54,1.54,0,0,1,.06-.93c.13-.25.57-.59.7-.53.28.15.71.6.65.78-.77,2.21,0,4.32.43,6.43a19.54,19.54,0,0,0,.86,2.27,3.38,3.38,0,0,1,.1.72Z" transform="translate(-29.71 -13.44)"/><path class="cls-1" d="M195.75,323.8l3.29-.91.26.36c-.4,1.19-.82,2.37-1.17,3.57a5,5,0,0,0-.21,1.53,3.14,3.14,0,0,0,.32.95c.32-.12.64-.22.94-.36a1.33,1.33,0,0,1,.79-.21c-.2.16-.4.35-.62.5-.45.3-.92.58-1.38.87-.31-.56-.87-1.12-.87-1.67a15.12,15.12,0,0,1,.59-3c.1-.45.24-.9.42-1.59l-2.32.37Z" transform="translate(-29.71 -13.44)"/><path class="cls-1" d="M185.84,394c-2-.28-3.27-4.31-3.39-6.76-.14-3,.39-4.26,1.82-4.57C182.63,386.76,182.71,390.56,185.84,394Z" transform="translate(-29.71 -13.44)"/><path class="cls-1" d="M202.6,325.75c0,.79,0,1.57,0,2.36a4.47,4.47,0,0,0,.18,1.52,11.78,11.78,0,0,0,1.12,1.72c.52-.39,1-.77,1.56-1.16.2-.15.37-.35.66-.62-.25,1.27-1.41,2.5-2.29,2.54s-1.83-.91-2.1-2.14a13.4,13.4,0,0,1-.45-2.87c0-.53.49-1.05.75-1.58Z" transform="translate(-29.71 -13.44)"/><path class="cls-1" d="M116.7,364.55c1.67-.36,3.54-.32,4.84-1.16s2.17-2.6,3.31-4.07a11.84,11.84,0,0,1-2.79,5A4.13,4.13,0,0,1,116.7,364.55Z" transform="translate(-29.71 -13.44)"/><path class="cls-1" d="M155.75,381c.85-.5,1.6-.35,1.87.72a8.52,8.52,0,0,1-.67,6.61c-.22.38-.84.52-1.39.66C157.22,386.33,158,383.78,155.75,381Z" transform="translate(-29.71 -13.44)"/><path class="cls-1" d="M169.38,376.6c0,1.16-.43,1.25-1.1,1.11a3.92,3.92,0,0,1-2.72-2.62,28.85,28.85,0,0,1-1.41-4.14c-.23-.88.34-1.17,1.16-1a9,9,0,0,0,2.12,6.51C167.88,377.07,168.46,377.55,169.38,376.6Z" transform="translate(-29.71 -13.44)"/><path class="cls-1" d="M243.61,341.22a2.77,2.77,0,0,1-.23,2.63c-2.17-.67-3-2.51-3.93-4.18-.13-.22.06-.63.1-1,.3.12.7.16.86.38.79,1.08,1.52,2.21,2.44,3.58.2-.71.31-1.08.42-1.46Z" transform="translate(-29.71 -13.44)"/><path class="cls-1" d="M173.24,281c.7-2.42,1.3-4.55,2-6.66.1-.32.51-.53.77-.79.15.35.49.77.41,1.06-.57,1.86-1.17,3.72-1.88,5.54C174.36,280.47,173.71,280.65,173.24,281Z" transform="translate(-29.71 -13.44)"/><path class="cls-1" d="M196.25,385.72a15.63,15.63,0,0,1-1.6,1.84,2,2,0,0,1-2.81-.22,6.18,6.18,0,0,1-1.47-4.65c0-.21.28-.41.62-.89a22.82,22.82,0,0,0,.55,2.69,7.23,7.23,0,0,0,1.06,2.18c.57.74,1.68.54,2.49-.33l.84-.92Z" transform="translate(-29.71 -13.44)"/><path class="cls-1" d="M243.3,339.85c-.05-1-.13-1.9-.14-2.86,0-.16.27-.48.39-.47a1.16,1.16,0,0,1,.84.31c.84,1.29,1.67,2.61,2.39,4,.13.24-.3.77-.47,1.16a5.62,5.62,0,0,1-.62-.75,17.21,17.21,0,0,0-2.08-2.8l-.12,1.45Z" transform="translate(-29.71 -13.44)"/><path class="cls-1" d="M221.53,342.25c.5,0,1-.21,1.16-.05,1.73,1.94,3.86,3.65,4.15,6.49,0,.44-.37.93-.81,1.36,1-2.15-.68-3.25-1.63-4.55C223.61,344.42,222.64,343.49,221.53,342.25Z" transform="translate(-29.71 -13.44)"/><path class="cls-1" d="M204.05,354.47c-.18.72-.35,1.45-.56,2.34l1.4-.2a3.71,3.71,0,0,0,.23.32,5.61,5.61,0,0,1-1.43,1c-.29.11-.81-.22-1.13-.47a3.34,3.34,0,0,1-1.29-3,2.83,2.83,0,0,1,.4-.92c.26.34.67.64.75,1a5.43,5.43,0,0,1-.21,1.58l1.62-1.93Z" transform="translate(-29.71 -13.44)"/><path class="cls-1" d="M174.59,312.64a12.69,12.69,0,0,1-1.6,1.67,1.34,1.34,0,0,1-2.18-.6,33.4,33.4,0,0,1-1.17-4.58c0-.16.27-.41.42-.61.19.2.48.37.54.61.31,1.23.51,2.49.86,3.71s1,1.31,1.85.41c.3-.33.67-.6,1-.9Z" transform="translate(-29.71 -13.44)"/><path class="cls-1" d="M175.34,284.3a7,7,0,0,1,1,.79,20.74,20.74,0,0,0,1.44,1.88c1.38,1.28,1.9,1.21,3.49-.2a1.84,1.84,0,0,1-2,1.89C177.55,288.36,175.21,287,175.34,284.3Z" transform="translate(-29.71 -13.44)"/><path class="cls-1" d="M154.32,319.91a1.94,1.94,0,0,1-1.31,2.35,1.47,1.47,0,0,1-2-1,35.19,35.19,0,0,1-1-4.37c0-.15.2-.36.31-.54.21.13.54.23.6.41.18.52.22,1.09.35,1.63a19.34,19.34,0,0,0,.62,2.26c.14.35.53.82.83.83s.68-.42,1-.7A7.07,7.07,0,0,0,154.32,319.91Z" transform="translate(-29.71 -13.44)"/><path class="cls-1" d="M190.25,277.25a5.15,5.15,0,0,1-.09-1.34q.61-2.75,1.37-5.44a1.19,1.19,0,0,1,.68-.66.79.79,0,0,1,.65.4c.08.22-.09.54-.17.81-.53,1.66-1.07,3.31-1.6,5-.14.42-.26.85-.39,1.28Z" transform="translate(-29.71 -13.44)"/><path class="cls-1" d="M172.18,286.44a4.5,4.5,0,0,1,.89,1c.37.79.55,1.66.92,2.44.74,1.56,1.59,1.68,2.77.47a3.5,3.5,0,0,1,.43-.33c.11.09.22.18.32.28a6.23,6.23,0,0,1-1.35,1.48,1.91,1.91,0,0,1-2.36-.59,9.05,9.05,0,0,1-2-4.33Z" transform="translate(-29.71 -13.44)"/><path class="cls-1" d="M146.71,318.43a16,16,0,0,0,.27,2.4,13.54,13.54,0,0,0,1,3c.56,1.11,1,1.09,1.86.2a3.29,3.29,0,0,1,.53-.36l.31.3c-.45.46-.83,1.12-1.38,1.33a1.66,1.66,0,0,1-1.54-.43,25.93,25.93,0,0,1-1.73-3.74,3,3,0,0,1,.16-2.76Z" transform="translate(-29.71 -13.44)"/><path class="cls-1" d="M124.34,295.91c-.41.48-.78,1-1.23,1.43a6,6,0,0,0-1.46,6.38,2.76,2.76,0,0,1,.19.93,3.43,3.43,0,0,1-.27.9c-.24-.22-.63-.4-.7-.67C120,301.9,120.62,297.69,124.34,295.91Z" transform="translate(-29.71 -13.44)"/><path class="cls-1" d="M207.89,295.54a4.85,4.85,0,0,1-.74-3.93c.36-2.35,2.32-3.32,4-4.44l.35.32a20.23,20.23,0,0,1-1.62,1.59,4.77,4.77,0,0,0-1.9,5.23,9.25,9.25,0,0,1,.21,1.17Z" transform="translate(-29.71 -13.44)"/><path class="cls-1" d="M184.16,310.33c-.17-.66-.31-1.19-.44-1.73l.38-.16a12.82,12.82,0,0,1,1.26,1.17.79.79,0,0,1-.1.77c-.51.45-1.1.8-1.65,1.22a1.84,1.84,0,0,1-2.4.17A2.87,2.87,0,0,1,180,309c.09-.22.39-.36.52-.47a9.71,9.71,0,0,0,1.4,2.55C182.94,312,183.41,310.45,184.16,310.33Z" transform="translate(-29.71 -13.44)"/><path class="cls-1" d="M219.9,320.65c.29-2.38.54-4.78.89-7.15.06-.45.5-.85.76-1.27a5,5,0,0,1,.29,1.48q-.42,3.06-1,6.1c-.07.38-.47.69-.72,1Z" transform="translate(-29.71 -13.44)"/><path class="cls-1" d="M154.81,153.16l6-10.59.45.1a2.88,2.88,0,0,1-.18,1.08c-1.4,2.31-2.86,4.58-4.26,6.89-.55.9-1,1.87-1.47,2.8C155.16,153.35,155,153.26,154.81,153.16Z" transform="translate(-29.71 -13.44)"/><path class="cls-1" d="M230.42,361.6c.46-.1,1-.38,1.29-.23a1.52,1.52,0,0,1,.81,1.11c-.18,2-.47,4.09-.8,6.12-.05.33-.49.59-.9.82C231.11,366.85,232.78,364.29,230.42,361.6Z" transform="translate(-29.71 -13.44)"/><path class="cls-1" d="M131.32,351.15a7.66,7.66,0,0,0,.21,1,10.68,10.68,0,0,0,1.07,2.62c1.34,1.89,2.51,1.88,4.38.22-.54.93-1,1.92-2.34,1.92a3.63,3.63,0,0,1-3.42-2.55c-.43-1-.9-2.07-.31-3.13Z" transform="translate(-29.71 -13.44)"/><path class="cls-1" d="M156.84,310.07a6.78,6.78,0,0,1,.58.93,18.6,18.6,0,0,0,.74,2.14c.53,1,1.21,1.89,1.79,2.86a4,4,0,0,1,.32,1c-.35,0-.82.1-1-.08-1.77-1.61-2.1-3.94-2.88-6.05C156.32,310.73,156.6,310.47,156.84,310.07Z" transform="translate(-29.71 -13.44)"/><path class="cls-1" d="M164.65,399.28c-.63,1-1.23,2-1.9,2.88a6.34,6.34,0,0,1-1.38,1.45,1.72,1.72,0,0,1-2.52-.36,2.3,2.3,0,0,1,.83-3,5,5,0,0,0-.2,1.33c.08.43.28,1,.6,1.18a1.5,1.5,0,0,0,1.36-.22c1.05-1.05,2-2.21,3-3.33Z" transform="translate(-29.71 -13.44)"/><path class="cls-1" d="M138.13,289.4c-.73.7-1.32.06-1.66-.57-1.15-2.1-1.05-4.45-1.09-6.76,0-.14.24-.41.35-.4s.51.17.54.31c.12.73.18,1.47.24,2.21a27.65,27.65,0,0,0,.31,3.65C136.93,288.37,137.6,288.79,138.13,289.4Z" transform="translate(-29.71 -13.44)"/><path class="cls-1" d="M113.41,335.25c.18-2.11-.19-4.29,1.17-6.21a20.8,20.8,0,0,0,1-2.51,2.09,2.09,0,0,1,2.7-1.25C114.9,327.79,113.89,331.38,113.41,335.25Z" transform="translate(-29.71 -13.44)"/><path class="cls-1" d="M229.23,367.75c-.1-.48-.19-1-.31-1.44-.35-1.49-.71-3-1.08-4.48a4.35,4.35,0,0,1-.29-1.14c0-.29.27-.56.43-.84.21.22.55.41.61.67q.71,3.18,1.3,6.37c.05.28-.18.6-.28.9Z" transform="translate(-29.71 -13.44)"/><path class="cls-1" d="M144.93,307.07a13.38,13.38,0,0,0,.49,1.28c.67,1.23,1.67,1.45,2.56.4a40.9,40.9,0,0,0,2.58-3.77,8.42,8.42,0,0,1-.53,1.74,15.09,15.09,0,0,1-2.18,3.09,2.2,2.2,0,0,1-2.1.34,6.32,6.32,0,0,1-1.49-2.3C144.21,307.76,144.6,307.44,144.93,307.07Z" transform="translate(-29.71 -13.44)"/><path class="cls-1" d="M213.86,389.55a3.22,3.22,0,0,1-1.37,2.38,1.69,1.69,0,0,1-2.2-.23,18.06,18.06,0,0,1-2.18-2.66c-.15-.2.07-.67.12-1a4,4,0,0,1,.78.55c.58.71,1,1.52,1.66,2.15,1,1,1.75.83,2.33-.48.14-.3.3-.58.46-.87Z" transform="translate(-29.71 -13.44)"/><path class="cls-1" d="M145.66,375.71a1.91,1.91,0,0,1-2.23,2.25,4.14,4.14,0,0,1-2.37-4.67c0-.09.17-.14.4-.31a6.19,6.19,0,0,1,.31.83c.09.39,0,.87.2,1.16a6.21,6.21,0,0,0,1.71,2.06C144.89,377.75,144.84,376.07,145.66,375.71Z" transform="translate(-29.71 -13.44)"/><path class="cls-1" d="M129,345.8a18.85,18.85,0,0,0,.18,3c.35,1.6.91,3.16,1.34,4.74a2.51,2.51,0,0,1-.06.81c-.23-.11-.57-.17-.66-.36a8.61,8.61,0,0,1-.83-2.08c-.33-1.67-.58-3.36-.78-5a3.38,3.38,0,0,1,.37-1.2Z" transform="translate(-29.71 -13.44)"/><path class="cls-1" d="M158.17,317.77c-.14,1.15-.77,1.48-1.67,1a7.18,7.18,0,0,1-2.81-3.59c-.25-.54-.46-1.1-.69-1.65l.46-.25a7.15,7.15,0,0,1,.76.89c.44.75.79,1.55,1.24,2.3C156.06,317.45,156.72,318.42,158.17,317.77Z" transform="translate(-29.71 -13.44)"/><path class="cls-1" d="M141.4,344.53c2.84-2.43,2.58-5.27,1.27-8.28a2.9,2.9,0,0,1,0-1.14c.27.25.63.44.79.74a6.42,6.42,0,0,1-1.78,8.93Z" transform="translate(-29.71 -13.44)"/><path class="cls-1" d="M172.37,373c-.55,1.35-1.1,2.26-2.36,2.33s-2.09-.84-2.73-1.84a7.17,7.17,0,0,1-.71-1.51,2.08,2.08,0,0,1,.06-.81c.26.13.61.2.76.4.36.48.57,1.06.92,1.54,1.28,1.77,2,1.81,3.51.22A3.41,3.41,0,0,1,172.37,373Z" transform="translate(-29.71 -13.44)"/><path class="cls-1" d="M238.39,307.18a2.3,2.3,0,0,1-.41-.81,2,2,0,0,1,.27-.89,4.9,4.9,0,0,0,.2-4.67,5.09,5.09,0,0,1-.33-1.21C240.16,300.61,240.52,301.57,238.39,307.18Z" transform="translate(-29.71 -13.44)"/><path class="cls-1" d="M123.27,347.11c-.7,1.33-1.51,1.8-2.48,1.52a3.4,3.4,0,0,1-2-2.71c0-.79.23-1.07,1.17-1.29C120,347.25,120.67,347.8,123.27,347.11Z" transform="translate(-29.71 -13.44)"/><path class="cls-1" d="M202.56,388.77c-.38-2.29-.76-4.59-1.16-7,1.15.21,1.25,1.18,1.46,1.95a7.6,7.6,0,0,1,0,5.07Z" transform="translate(-29.71 -13.44)"/><path class="cls-1" d="M170.27,397.39l1.11,1a17,17,0,0,0,1.14-1.77,11.46,11.46,0,0,0,.53-1.78l.47.07a4.89,4.89,0,0,1,0,1.14,3,3,0,0,1-.46,1.1c-.88,1.23-2.14,2.31-1.34,4.1,0,.1-.17.32-.45.81-.5-1.7-.91-3.1-1.33-4.51Z" transform="translate(-29.71 -13.44)"/><path class="cls-1" d="M214.09,352.69a2.37,2.37,0,0,1-2.77,1.52c-2.25-.5-3.35-2.15-4.23-4.11,1.12-.48,1.27.43,1.69.94a11.33,11.33,0,0,0,1.76,2c1.2.92,1.85.82,3.06-.13A2.75,2.75,0,0,1,214.09,352.69Z" transform="translate(-29.71 -13.44)"/><path class="cls-1" d="M128.32,301.65c-1.5-.87-.67-8,.61-9.78a6.85,6.85,0,0,1,.06,1.35c-.26,1.77-.65,3.52-.83,5.3A20.78,20.78,0,0,0,128.32,301.65Z" transform="translate(-29.71 -13.44)"/><path class="cls-1" d="M140.75,352l1.05-.83.3.29c-.44.45-.82,1.16-1.34,1.28s-1.16-.38-1.51-.8a5.24,5.24,0,0,1-.93-3.93.73.73,0,0,1,.4-.54C139.44,349.11,139.25,350.9,140.75,352Z" transform="translate(-29.71 -13.44)"/><path class="cls-1" d="M202,288.14a2.72,2.72,0,0,1,3-1.07c.74.24,1.19.73.87,1.54-.51,1.33-1.09,2.62-1.64,3.93l-.43,0c0-.31-.2-.67-.1-.92.29-.73.75-1.4,1-2.14.14-.4.24-1.05,0-1.28a2.08,2.08,0,0,0-1.38-.47A4.63,4.63,0,0,0,202,288.14Z" transform="translate(-29.71 -13.44)"/><path class="cls-1" d="M179,312.17c-.82,1.26-2,1.47-2.87.59-1.49-1.44-1.71-3.34-1.73-5.28,0-.17.25-.34.38-.52.21.21.55.4.6.63.16.86.16,1.75.34,2.6a4,4,0,0,0,.75,1.83c.31.35,1,.39,1.54.46C178.3,312.52,178.6,312.32,179,312.17Z" transform="translate(-29.71 -13.44)"/><path class="cls-1" d="M119.13,360.12a3.58,3.58,0,0,1-3,2,2.49,2.49,0,0,1-2.62-1.46,2,2,0,0,1,0-.85,2.37,2.37,0,0,1,.78.24c1.64,1.31,1.86,1.32,3.86.08a.63.63,0,0,1,.33-.09C118.62,360,118.8,360.07,119.13,360.12Z" transform="translate(-29.71 -13.44)"/><path class="cls-1" d="M213.87,376.84a4.54,4.54,0,0,1,.89.86c.16.28.08.69.16,1,.31,1.17.92,1.43,2,.87l.63-.32c-.07,1.13-.66,1.68-1.69,1.65-1.54,0-2.15-1.06-2.26-3.79C213.68,377.05,213.77,376.94,213.87,376.84Z" transform="translate(-29.71 -13.44)"/><path class="cls-1" d="M167.45,295.65c-.19,2.89-1.18,5.75,1.18,8.17l-.52.61C166.14,302.26,165.59,296.62,167.45,295.65Z" transform="translate(-29.71 -13.44)"/><path class="cls-1" d="M243.52,336c-.19-2.07-.35-3.86-.54-5.66-.08-.79-.25-1.57-.29-2.37,0-.24.25-.49.39-.73.19.16.53.31.54.49.18,2.46.32,4.92.44,7.38C244.07,335.31,243.8,335.54,243.52,336Z" transform="translate(-29.71 -13.44)"/><path class="cls-1" d="M206.26,390c.06-.6.12-1.19.19-1.78.09-.86.21-1.71.3-2.57s-.07-1.63-1.47-1.26c0-.14,0-.27.07-.4.47-.27,1-.85,1.38-.74a1.86,1.86,0,0,1,.92,1.33c.27,1.92-.43,3.69-.88,5.49Z" transform="translate(-29.71 -13.44)"/><path class="cls-1" d="M193.13,397.11c.22,1.5-.67,2.83-2,2.79a21.61,21.61,0,0,1-3.71-.62.69.69,0,0,1-.32-.62.76.76,0,0,1,.59-.42,6.19,6.19,0,0,1,1.4.27C191.69,399.23,191.69,399.24,193.13,397.11Z" transform="translate(-29.71 -13.44)"/><path class="cls-1" d="M126,308.7c.12.35.25.7.37,1.06a11.69,11.69,0,0,0,.47,1.45c.82,1.73,1.19,1.87,2.77,1.12a1.46,1.46,0,0,1-2.13,1.38A4.64,4.64,0,0,1,126,308.7Z" transform="translate(-29.71 -13.44)"/><path class="cls-1" d="M159.31,271.25c-.41,0-.8.12-1,0-1.13-.69-2-4.68-1.31-5.81.11-.18.45-.23.68-.33a2.65,2.65,0,0,1,.22.71c.1,1.28.09,2.58.3,3.85C158.24,270.14,158.79,270.55,159.31,271.25Z" transform="translate(-29.71 -13.44)"/><path class="cls-1" d="M118.53,378c-.36.61-.8,1.27-1.3.58a26.65,26.65,0,0,1-2.68-4.83C116.65,374.43,116.8,376.9,118.53,378Z" transform="translate(-29.71 -13.44)"/><path class="cls-1" d="M175.43,390.78c1.3,0,1.71.23,1.37,1.37-.48,1.63-1.19,3.18-1.83,4.76a8.69,8.69,0,0,1-.82,1.57,1.16,1.16,0,0,1-.88.42C174.76,396.37,176.54,394,175.43,390.78Z" transform="translate(-29.71 -13.44)"/><path class="cls-1" d="M158.11,363.75c1.55-2.79-.07-4.87-1.05-7.22a4.86,4.86,0,0,1,.93.66c1.53,1.81,1.7,4,1.47,6.19C159.36,364.26,158.7,364.27,158.11,363.75Z" transform="translate(-29.71 -13.44)"/><path class="cls-1" d="M112.29,300.18c-1.3,1.4-.64,2.86-.61,4.25,0,.15.24.29.38.43l.5.44c-.15.14-.31.39-.48.41s-.67,0-.77-.22a6.09,6.09,0,0,1-.72-4.69C110.78,300,111.41,300,112.29,300.18Z" transform="translate(-29.71 -13.44)"/><path class="cls-1" d="M203.23,350.33c.67-1.89,1.28-3.8,2-5.65a3.42,3.42,0,0,1,1.25-1.37c.63-.43,1.2-.23,1.53.61-1.55-.18-2,1.09-2.51,2a23.09,23.09,0,0,0-1.38,3.53c-.14.37-.3.73-.45,1.09Z" transform="translate(-29.71 -13.44)"/><path class="cls-1" d="M164.26,280a6.69,6.69,0,0,1-.48-1.73,40.5,40.5,0,0,1,.26-4.12c0-.18.42-.4.67-.44s.43.38.41.57c-.19,1.86-.43,3.71-.65,5.56Z" transform="translate(-29.71 -13.44)"/><path class="cls-1" d="M139.27,380.31c-2.46,2-1.33,4.8-2.13,7.09-.9-1.94-.34-3.85,0-5.73C137.24,380.83,137.92,380.45,139.27,380.31Z" transform="translate(-29.71 -13.44)"/><path class="cls-1" d="M193.55,272c.6-1.26,1.12-2.49,1.76-3.65a1.74,1.74,0,0,1,1-.69c.21-.06.53.22.79.35a3.22,3.22,0,0,1-.42.6,6.19,6.19,0,0,0-2,3.55c-.06.27-.34.49-.52.74Z" transform="translate(-29.71 -13.44)"/><path class="cls-1" d="M236.19,301.72c-.3-2.15-.6-4.31-.94-6.78.43.35,1,.57,1.06.91a10.19,10.19,0,0,1,.25,5.86Z" transform="translate(-29.71 -13.44)"/><path class="cls-1" d="M166.32,340.8c-.24-.06-.73,0-.8-.21-.67-1.54-1.31-3.1-1.86-4.68-.1-.28.3-.72.46-1.08a8.52,8.52,0,0,1,.49,1C165.17,337.42,165.7,339,166.32,340.8Z" transform="translate(-29.71 -13.44)"/><path class="cls-1" d="M182.64,366.78c1,1.32,2,2.25,3.77,1.51a7.38,7.38,0,0,0-1,2.08,6.69,6.69,0,0,0,.51,2.12c-1.57-.24-1.13-1.46-1.48-2.23a5.23,5.23,0,0,0-.83-1.38C183.09,368.36,182.39,368,182.64,366.78Z" transform="translate(-29.71 -13.44)"/><path class="cls-1" d="M155.51,375.16c0,.71,0,1.43,0,2.14,0,.16-.29.3-.44.45-.14-.15-.34-.28-.42-.47a.89.89,0,0,1,0-.58,10,10,0,0,0-.29-4.93c-.06-.27.13-.6.2-.9.25.21.68.39.73.65.23,1.19.36,2.41.53,3.61Z" transform="translate(-29.71 -13.44)"/><path class="cls-1" d="M202.6,270.55a10.4,10.4,0,0,1,.32-1.25c.3-.81.74-1.58,1-2.4s.37-1.61-1.2-1.41c1.72-.88,2.49-.47,2.34,1.05a8.37,8.37,0,0,1-2,4.14Z" transform="translate(-29.71 -13.44)"/><path class="cls-1" d="M159.56,295.66a15.49,15.49,0,0,1-.72-1.81c-.06-.22.2-.53.31-.79a3.31,3.31,0,0,1,.64.41c.13.13.16.36.27.52a1.64,1.64,0,0,0,2.68.45c.24-.2.47-.43.92-.84-.6,2.09-2,2.66-4.14,2Z" transform="translate(-29.71 -13.44)"/><path class="cls-1" d="M235.55,361.33c0-.32-.08-.43,0-.47a10.7,10.7,0,0,0,2.66-5.34c.05-.21.44-.34.67-.51.11.28.4.65.31.84-.8,1.66-1.64,3.31-2.54,4.93C236.45,361.05,236,361.13,235.55,361.33Z" transform="translate(-29.71 -13.44)"/><path class="cls-1" d="M133.36,375.75c.16,1.59-2.26,3.59-3.67,3.05-.29-.11-.48-.47-.72-.71.25-.21.46-.53.75-.63.68-.22,1.43-.24,2.06-.52A9.21,9.21,0,0,0,133.36,375.75Z" transform="translate(-29.71 -13.44)"/><path class="cls-1" d="M143.27,268.15c-.91-1.83-2.21-3.11-4.36-3.24.63-1,1.48-1.1,2.68-.35C143,265.48,143.92,267.2,143.27,268.15Z" transform="translate(-29.71 -13.44)"/><path class="cls-1" d="M198.62,345.25a5.93,5.93,0,0,0-.43,4.65,4,4,0,0,1,.08,1.09s-.46.15-.5.09a2.9,2.9,0,0,1-.54-1.12,31.84,31.84,0,0,1-.16-3.65C197.1,345.24,197.57,345,198.62,345.25Z" transform="translate(-29.71 -13.44)"/><path class="cls-1" d="M142.18,281.88c0-1.46-.05-2.93,0-4.39,0-.35.49-.68.76-1a4.6,4.6,0,0,1,.39,1.19,24.72,24.72,0,0,1-.12,3.1,5.19,5.19,0,0,1-.48,1.31Z" transform="translate(-29.71 -13.44)"/><path class="cls-1" d="M215.62,362.55c-.51-1.64,0-3.31.22-4.94.11-.77.43-1.62,1.32-1.72-.39,2.24-.77,4.47-1.16,6.69Z" transform="translate(-29.71 -13.44)"/><path class="cls-1" d="M231.44,339c1.27.43,3,5,2.58,6.23-.16-.11-.41-.19-.43-.31C233.25,342.88,231.69,341.23,231.44,339Z" transform="translate(-29.71 -13.44)"/><path class="cls-1" d="M247.16,314c-1,2.43-3.89,3.29-5.42,1.78-.24-.24-.26-.72-.38-1.09a2.84,2.84,0,0,1,1,.24,2.93,2.93,0,0,0,4.07-.38A7.23,7.23,0,0,1,247.16,314Z" transform="translate(-29.71 -13.44)"/><path class="cls-1" d="M207.54,267.82c1.46,0,1.92.4,2,1.5,0,1.47-1.3,3.57-2.53,3.59C208,271.32,209.24,269.79,207.54,267.82Z" transform="translate(-29.71 -13.44)"/><path class="cls-1" d="M144,262.36c.48.21,1.15.27,1.42.64a7.2,7.2,0,0,1,1.17,2.41,10.65,10.65,0,0,1,.17,3.1c-.95-2-.74-4.47-3.23-5.62Z" transform="translate(-29.71 -13.44)"/><path class="cls-1" d="M159.22,380.1c-.19-1.35-.36-2.71-.58-4.07-.09-.58-.32-1.14-.43-1.72a2,2,0,0,1,.13-.73c.24.14.65.23.7.42a22,22,0,0,1,.65,2.78,14.67,14.67,0,0,1,.12,2.39,4,4,0,0,1-.26,1Z" transform="translate(-29.71 -13.44)"/><path class="cls-1" d="M119.32,337.76c1.05-2.39,2-4.81,3.18-7.15.5-1,1.39-1,1.76-.5a16.52,16.52,0,0,0-2,2.4c-1,1.75-1.8,3.6-2.68,5.41A2.26,2.26,0,0,0,119.32,337.76Z" transform="translate(-29.71 -13.44)"/><path class="cls-1" d="M134.81,339.29c-.64,3-1.24,5.79-1.85,8.61a2.1,2.1,0,0,1-.16-.82c.36-2.35.74-4.71,1.19-7.05C134.05,339.74,134.53,339.54,134.81,339.29Z" transform="translate(-29.71 -13.44)"/><path class="cls-1" d="M195.53,321.39c-.9,2.44-3.48,3.6-4.43,6l-.42-.29c1.26-1.95,2.49-3.9,3.78-5.82.12-.18.55-.15.83-.22Z" transform="translate(-29.71 -13.44)"/><path class="cls-1" d="M210.78,326.62c.42.52.62.72.78,1,.79,1.21,1.59,2.42,2.36,3.65a2.64,2.64,0,0,1,.18.71c-.28,0-.71.07-.82-.07q-1.44-2-2.76-4.09C210.42,327.61,210.63,327.25,210.78,326.62Z" transform="translate(-29.71 -13.44)"/><path class="cls-1" d="M147.81,387.32c-.2.24-.39.49-.68.87-.26-.24-.6-.41-.73-.68-.67-1.46-.57-4.56.21-5.17.3,1.69.58,3.35.87,5Z" transform="translate(-29.71 -13.44)"/><path class="cls-1" d="M133.78,387.12c-1.62-1.08-1.73-2.67-1.62-4.23,0-.56.67-1.07,1.27-1.51A9.22,9.22,0,0,0,133.78,387.12Z" transform="translate(-29.71 -13.44)"/><path class="cls-1" d="M219.51,360.15c.52-1.92,1-3.84,1.6-5.73.08-.25.74-.31,1-.42l-2,6.35Z" transform="translate(-29.71 -13.44)"/><path class="cls-1" d="M247.44,322c.09.94-.47,1.51-1.51,1.56a2.84,2.84,0,0,1-2.68-2.27.87.87,0,0,1,.2-.6c.09-.08.38,0,.53,0a1.47,1.47,0,0,1,.54.45C245.71,322.81,245.71,322.81,247.44,322Z" transform="translate(-29.71 -13.44)"/><path class="cls-1" d="M171,298.28l1-.32.19.2c-.2.26-.37.69-.62.75s-1-.05-1-.26c-.55-1.22-1-2.49-1.43-3.75,0-.13.26-.52.33-.51.24.06.58.19.65.39.23.62.37,1.28.54,1.93C170.79,297.2,170.9,297.7,171,298.28Z" transform="translate(-29.71 -13.44)"/><path class="cls-1" d="M207.49,322c-1.93-1.86-2.75-5.56-1.49-6.28C206.48,317.79,207,319.83,207.49,322Z" transform="translate(-29.71 -13.44)"/><path class="cls-1" d="M210,330.58a2.05,2.05,0,0,1-3.16-1.15,10.47,10.47,0,0,1-.43-2.57c0-.17.21-.37.33-.55a2.86,2.86,0,0,1,.53.51c.09.15,0,.39.07.58C207.67,328.9,208,330.41,210,330.58Z" transform="translate(-29.71 -13.44)"/><path class="cls-1" d="M161.11,384.66c.51-.26.88.13,1.11.83.68,2,.4,4.32-.52,4.61C161.52,388.4,161.33,386.68,161.11,384.66Z" transform="translate(-29.71 -13.44)"/><path class="cls-1" d="M207.17,359.68l-.56.16a11.14,11.14,0,0,1,.57-5.18c.11-.29.84-.36,1.49-.61-.43,1.18-.79,2-1,2.83S207.35,358.59,207.17,359.68Z" transform="translate(-29.71 -13.44)"/><path class="cls-1" d="M196.65,380.76c.29.37.49.52.55.71.45,1.43.91,2.85,1.29,4.29,0,.21-.33.53-.51.8-.22-.19-.58-.34-.64-.57-.36-1.45-.66-2.92-1-4.39C196.35,381.41,196.52,381.17,196.65,380.76Z" transform="translate(-29.71 -13.44)"/><path class="cls-1" d="M120.53,290.85l1-1.28c.3.87.06,1.25-.9,1.76-.6.31-1.2.28-1.37-.37a14.05,14.05,0,0,1-.29-2.9c0-.19.36-.4.56-.6.13.25.36.48.39.74.1.84.12,1.69.18,2.54Z" transform="translate(-29.71 -13.44)"/><path class="cls-1" d="M208.44,348.73c-.41-1.48.63-5.9,1.46-6.19C210.17,343.67,209.07,348.34,208.44,348.73Z" transform="translate(-29.71 -13.44)"/><path class="cls-1" d="M167.39,279.1c.83-1.48,1.61-3,2.5-4.41.2-.32.74-.43,1.13-.63a4.89,4.89,0,0,1-.29,1.17c-.61,1-1.25,2.09-1.94,3.1a8.46,8.46,0,0,1-1.07,1.09Z" transform="translate(-29.71 -13.44)"/><path class="cls-1" d="M124,352.65a3.41,3.41,0,0,1-2.7,3.39c-1.2.12-1.94-.46-2.13-1.93C121.34,355.71,122.8,354.78,124,352.65Z" transform="translate(-29.71 -13.44)"/><path class="cls-1" d="M137.12,346c1.8-1.72,2.12-3.89,2.59-6a1.51,1.51,0,0,1,.67-.82C140.65,341.71,138.53,346.16,137.12,346Z" transform="translate(-29.71 -13.44)"/><path class="cls-1" d="M165.12,397.85c2,.94.95,3.66,3.22,4.52-.37.33-.7.84-1,.8s-.67-.5-.82-.85c-.46-1.15-.83-2.32-1.22-3.49A8.17,8.17,0,0,1,165.12,397.85Z" transform="translate(-29.71 -13.44)"/><path class="cls-1" d="M247.64,335.32a1.67,1.67,0,0,1-.44.45c-.09,0-.39-.21-.48-.38-.5-1-1-2.05-1.42-3.11a3.51,3.51,0,0,1,0-1.25c.33.21.82.34,1,.64C246.77,332.81,247.15,334,247.64,335.32Z" transform="translate(-29.71 -13.44)"/><path class="cls-1" d="M186.44,272.49c1.08-1.35,2.11-2.73,3.24-4a1.93,1.93,0,0,1,1.48-.29c-1.71,1.37-2.7,3.41-4.45,4.65Z" transform="translate(-29.71 -13.44)"/><path class="cls-1" d="M218.47,336c-.16-2.09-.74-3.9-2.91-5a1.67,1.67,0,0,1,2.21.51A4.32,4.32,0,0,1,218.47,336Z" transform="translate(-29.71 -13.44)"/><path class="cls-1" d="M213.25,356.19c-.36,1.41-.66,2.71-1,4-.11.33-.48.59-.72.88-.1-.35-.34-.72-.28-1.05a21.31,21.31,0,0,1,.7-2.86A1.2,1.2,0,0,1,213.25,356.19Z" transform="translate(-29.71 -13.44)"/><path class="cls-1" d="M240.9,307.44c.72.59,1.77.79,1.69,1.92a2.87,2.87,0,0,1-2.57,2.9C241.23,310.77,242.33,309.35,240.9,307.44Z" transform="translate(-29.71 -13.44)"/><path class="cls-1" d="M117.78,283.14c.32-2,3.88-6.08,5.38-6.17Z" transform="translate(-29.71 -13.44)"/><path class="cls-1" d="M160.69,396.37c.64-2.19,1.27-4.31,2-6.71C163.47,391,161.81,395.77,160.69,396.37Z" transform="translate(-29.71 -13.44)"/><path class="cls-1" d="M167.45,312.17c-.16.89-.35,1.78-.47,2.67-.06.42,0,.86,0,1.28a4.51,4.51,0,0,1-.28.93c-.27-.28-.78-.56-.77-.84a14,14,0,0,1,.34-3,4.86,4.86,0,0,1,.8-1.33Z" transform="translate(-29.71 -13.44)"/><path class="cls-1" d="M224.49,331.45c.09,1,.24,1.95.26,2.93a8,8,0,0,1-.28,2c0,.19-.38.31-.58.46-.13-.18-.37-.36-.36-.53,0-1.5.13-3,.22-4.49,0-.12.15-.24.23-.36Z" transform="translate(-29.71 -13.44)"/><path class="cls-1" d="M227.07,362.16c-1.37-.66-2-3.16-1.22-4.09.12-.14.9,0,.91.1C226.91,359.46,227,360.76,227.07,362.16Z" transform="translate(-29.71 -13.44)"/><path class="cls-1" d="M228,366.69c-.49,1.2-1.57,1.58-2.16.76a6.43,6.43,0,0,1-.8-2.29c0-.17.33-.44.52-.66a7,7,0,0,1,.46.61,1.17,1.17,0,0,1,.07.46C226.18,366.78,227,366.92,228,366.69Z" transform="translate(-29.71 -13.44)"/><path class="cls-1" d="M200.7,275.47c-.25-.47-.62-.85-.54-1.08a28.4,28.4,0,0,1,1.35-3c.08-.16.43-.2.66-.29.07.21.24.45.2.63-.26,1-.55,2-.88,3C201.42,274.94,201.13,275.08,200.7,275.47Z" transform="translate(-29.71 -13.44)"/><path class="cls-1" d="M196.58,347.51c-.69.89-1.28,1-1.53-.09a10.3,10.3,0,0,1-.2-2.77c0-.31.56-.6,1-.83C195.49,345.2,195.36,346.45,196.58,347.51Z" transform="translate(-29.71 -13.44)"/><path class="cls-1" d="M126.52,273.88c.54,1.87-1.64,6-3.18,6.25C125.39,278.56,125.37,275.92,126.52,273.88Z" transform="translate(-29.71 -13.44)"/><path class="cls-1" d="M110.38,338c-1.7-2.26-1.06-8.49.82-9.47C109.61,331.47,109.59,334.59,110.38,338Z" transform="translate(-29.71 -13.44)"/><path class="cls-1" d="M128.34,281.34c-.42-2.44-.22-4.87.42-5.29C129.37,277.34,129.18,280.5,128.34,281.34Z" transform="translate(-29.71 -13.44)"/><path class="cls-1" d="M178.25,323.88c-.38,0-.82.13-1.11,0a5.39,5.39,0,0,1-1.71-3.77.85.85,0,0,1,.31-.41c.22.12.51.25.59.46.27.69.41,1.45.72,2.13a8.38,8.38,0,0,0,.95,1.31Z" transform="translate(-29.71 -13.44)"/><path class="cls-1" d="M164.13,269.74a7.09,7.09,0,0,1-1,1.38c-.23.2-1,.25-1,.13-.57-1.1-1-2.24-1.5-3.38,0-.1.18-.3.35-.55.93,1,.58,2.8,2.06,3.29l1.19-.84Z" transform="translate(-29.71 -13.44)"/><path class="cls-1" d="M110.29,344a4.11,4.11,0,0,1,.08-.6,2.59,2.59,0,0,0-.72-2.7,3.2,3.2,0,0,1-.85-1.64c.9.69,2.3,1,2.28,2.39C111.07,342.28,111.29,343.31,110.29,344Z" transform="translate(-29.71 -13.44)"/><path class="cls-1" d="M193.37,372.9c1,.81.66,2.65,2.59,2.65-.26.25-.63.76-.77.7a4.16,4.16,0,0,1-1.68-1.06A1.74,1.74,0,0,1,193.37,372.9Z" transform="translate(-29.71 -13.44)"/><path class="cls-1" d="M149.31,115.05c1.51-.81,2.59-2.43,4.72-2.61-1.33,1.12-2.43,2.08-3.59,3-.24.18-.74,0-1.11,0Z" transform="translate(-29.71 -13.44)"/><path class="cls-1" d="M156.08,329.33a2.38,2.38,0,0,1-2.35,1.78c-.41,0-1-.62-1.2-1.09s.05-1,.25-1.43C154,330.4,154,330.4,156.08,329.33Z" transform="translate(-29.71 -13.44)"/><path class="cls-1" d="M144.56,390.32a4,4,0,0,1,.38-.8c1.49.34,3,.74,4.45,1.13.06,0,.1.12.28.35-.33.09-.59.26-.82.21-1.45-.28-2.89-.62-4.33-.93Z" transform="translate(-29.71 -13.44)"/><path class="cls-1" d="M208.86,275.76c.48-1.17,2.63-1.28,1.46-3.07l.2-.24c.37.12.83.14,1.06.39a1.07,1.07,0,0,1,.06,1C211.11,274.88,210.52,276,208.86,275.76Z" transform="translate(-29.71 -13.44)"/><path class="cls-1" d="M205.32,277.76c.17-1.22.33-2.44.54-3.65,0-.11.52-.28.57-.22.24.27.63.68.55.91-.34,1.05-.81,2.06-1.24,3.08Z" transform="translate(-29.71 -13.44)"/><path class="cls-1" d="M126.42,285.85c-1.23-.09-3.14-1.94-3.08-2.79,0-.19.2-.5.34-.52a.88.88,0,0,1,.7.23c.33.49.53,1.06.85,1.55S125.93,285.23,126.42,285.85Z" transform="translate(-29.71 -13.44)"/><path class="cls-1" d="M126.91,371.55c-1.53,1.24-3,1.3-4.37.12C124.1,371,125.53,372,126.91,371.55Z" transform="translate(-29.71 -13.44)"/><path class="cls-1" d="M187.42,327.86c.48-1.83.67-3.77,1.82-5.37l.48.16-2,5.31Z" transform="translate(-29.71 -13.44)"/><path class="cls-1" d="M164.16,269.77c1.4-2.47,2.07-2.48,3.52,0,0,.05,0,.15-.08.59L165.13,269l-1,.72Z" transform="translate(-29.71 -13.44)"/><path class="cls-1" d="M115.56,295.7c.32,1.38-.32,2.78,1.49,3.66-.68.17-1.14.42-1.29.29a2.08,2.08,0,0,1-.81-1.18C114.88,297.6,114.43,296.57,115.56,295.7Z" transform="translate(-29.71 -13.44)"/><path class="cls-1" d="M182.5,321.26c.38,1.35,1.94,2.22,1.7,3.83l-.54.23c-.58-1.28-1.15-2.57-1.72-3.85Z" transform="translate(-29.71 -13.44)"/><path class="cls-1" d="M151.6,395c1.36-.89,1.4-2.91,3.25-3.75C153.94,393.45,152.58,395.08,151.6,395Z" transform="translate(-29.71 -13.44)"/><path class="cls-1" d="M182.35,301.45c1.49,1.79,1.49,1.79,3.82,2.06a2.21,2.21,0,0,1-2.73.19C182.72,303.23,181.84,302.77,182.35,301.45Z" transform="translate(-29.71 -13.44)"/><path class="cls-1" d="M200.41,365.46c.11-1,.19-2,.36-2.94,0-.19.46-.31.71-.47.08.27.26.57.21.82-.17.92-.42,1.82-.64,2.73Z" transform="translate(-29.71 -13.44)"/><path class="cls-1" d="M191.51,348.69c0-.21-.15-.44-.09-.61a17.54,17.54,0,0,1,.93-2.19c.1-.2.46-.26.7-.39.12.26.41.61.32.77-.47.87-1,1.7-1.55,2.54Z" transform="translate(-29.71 -13.44)"/><path class="cls-1" d="M166.9,291.05c-.42-.12-1-.12-1.24-.39a10.45,10.45,0,0,1-1.25-1.66c.27-.11.65-.41.77-.32.73.52,1.41,1.13,2.1,1.71Z" transform="translate(-29.71 -13.44)"/><path class="cls-1" d="M165.75,346.79c0,.68,0,1.38,0,2.07a.89.89,0,0,1-.35.64.83.83,0,0,1-.67-.27C163.9,348.28,164.31,347.46,165.75,346.79Z" transform="translate(-29.71 -13.44)"/><path class="cls-1" d="M158.45,327.1c-1.06.67-1.74.54-2.31-.44a2.3,2.3,0,0,1-.15-.85c.32,0,.72-.11,1,0A14.59,14.59,0,0,1,158.45,327.1Z" transform="translate(-29.71 -13.44)"/><path class="cls-1" d="M189,364.37c1.06-.66,2.78.73,3.09,2.44Z" transform="translate(-29.71 -13.44)"/><path class="cls-1" d="M148,344.73c1-.15,1.08.67,1.12,1.21a4.07,4.07,0,0,1-.53,1.48c-.25-.11-.7-.22-.71-.34C147.86,346.33,147.94,345.58,148,344.73Z" transform="translate(-29.71 -13.44)"/><path class="cls-1" d="M230,332.84a2.65,2.65,0,0,1,.12-.94c.11-.19.42-.27.64-.39a20.21,20.21,0,0,1,.54,2c0,.25-.22.54-.34.81-.22-.11-.56-.17-.65-.35A5.6,5.6,0,0,1,230,332.84Z" transform="translate(-29.71 -13.44)"/><path class="cls-1" d="M244.44,310.58c0-.38-.25-.92-.08-1.11a23,23,0,0,1,2-1.8l.39.38-1.95,2.49Z" transform="translate(-29.71 -13.44)"/><path class="cls-1" d="M143.31,347.22c.44.21,1.13.31,1.27.65a7,7,0,0,1,.26,2l-.53.12-1.15-2.49Z" transform="translate(-29.71 -13.44)"/><path class="cls-1" d="M171.44,328.93c-.75-.92-1.53-1.82-2.25-2.77-.1-.12.05-.44.09-.67l.32-.12,2.19,3.21Z" transform="translate(-29.71 -13.44)"/><path class="cls-1" d="M156,363.5c-.2.82-.36,1.55-.58,2.26a.54.54,0,0,1-.45.28.63.63,0,0,1-.38-.37C154.2,364.66,154.67,363.88,156,363.5Z" transform="translate(-29.71 -13.44)"/><path class="cls-1" d="M197.28,369.72c.65-1.27.73-2.64,2.68-2.65C199.12,368.09,198.77,369.21,197.28,369.72Z" transform="translate(-29.71 -13.44)"/><path class="cls-1" d="M193.21,298.54c-.93,1.12-1.76,1-2.74-.52Z" transform="translate(-29.71 -13.44)"/><path class="cls-1" d="M196.41,359.49c-.12-1.14-1-2.24-.27-3.49C196.78,356.5,197,358.43,196.41,359.49Z" transform="translate(-29.71 -13.44)"/><path class="cls-1" d="M178.77,303.92l3.19.69a7.13,7.13,0,0,1-1.56.6C179.63,305.29,179.05,305,178.77,303.92Z" transform="translate(-29.71 -13.44)"/><path class="cls-1" d="M143.77,269.44c1.27.58,1.63,1.95.87,3.49C144.32,271.66,144.06,270.62,143.77,269.44Z" transform="translate(-29.71 -13.44)"/><path class="cls-1" d="M122,340.26a16.92,16.92,0,0,1,1.27,1.8c0,.11-.37.48-.57.73-.34-.54-.7-1.05-1-1.61C121.6,341,121.79,340.76,122,340.26Z" transform="translate(-29.71 -13.44)"/><path class="cls-1" d="M151.63,343.11l-1.42-1.55c.61-.15,1.16-.47,1.44-.31C152.46,341.71,152.33,342.38,151.63,343.11Z" transform="translate(-29.71 -13.44)"/><path class="cls-1" d="M148.08,268.06a2.19,2.19,0,0,1-.79,2.55c.13-1.08.22-1.87.32-2.66Z" transform="translate(-29.71 -13.44)"/><path class="cls-1" d="M198.11,377.44l1.09-1.2.33.1c.05.34.24.85.1,1a4.47,4.47,0,0,1-1.25.57Z" transform="translate(-29.71 -13.44)"/><path class="cls-1" d="M196.13,295.46a12.42,12.42,0,0,1-1.16.9c-.06,0-.36-.32-.54-.49l1.36-.87Z" transform="translate(-29.71 -13.44)"/><path class="cls-1" d="M175.67,128.72a13.09,13.09,0,0,0,7,7.58l-.84,1.19c-1.85-1.79-3.67-3.44-5.36-5.22a8.8,8.8,0,0,1-1.3-2.4c-.11-.25,0-.61.06-.92Z" transform="translate(-29.71 -13.44)"/></svg>